<svg width="40" height="31" fill="none" xmlns="http://www.w3.org/2000/svg">
    <path d="M24.94.423L23.584.05a.61.61 0 00-.513.055.71.71 0 00-.34.426l-8.152 28.22a.655.655 0 00.054.535.71.71 0 00.427.339l1.355.371a.61.61 0 00.514-.054.712.712 0 00.338-.426l8.154-28.22a.655.655 0 00-.055-.535.71.71 0 00-.426-.34zM12.722 5.931a.691.691 0 00-.219-.503L11.41 4.335a.692.692 0 00-.503-.218.691.691 0 00-.502.218L.219 14.521a.69.69 0 00-.219.503c0 .19.073.357.219.503l10.185 10.185a.69.69 0 001.006 0l1.093-1.092a.691.691 0 00.219-.503.69.69 0 00-.219-.502l-8.59-8.591 8.59-8.59a.69.69 0 00.219-.503zM39.781 14.521L29.595 4.335a.691.691 0 00-.502-.218.692.692 0 00-.503.218l-1.093 1.093a.69.69 0 00-.218.503c0 .19.072.357.218.503l8.59 8.59-8.59 8.59a.691.691 0 00-.218.503c0 .19.072.358.218.503l1.093 1.093a.69.69 0 00.503.218.69.69 0 00.502-.218l10.186-10.186a.691.691 0 00.219-.503.691.691 0 00-.219-.503z"
          fill="white"></path>
</svg>