<svg width="40" height="40" fill="none" xmlns="http://www.w3.org/2000/svg">
    <path fill-rule="evenodd" clip-rule="evenodd"
          d="M38.828 2.887h-5.133c.019-.569.03-1.14.03-1.715C33.724.525 33.198 0 32.551 0H7.448c-.647 0-1.172.525-1.172 1.172 0 .575.01 1.146.029 1.715H1.172C.525 2.887 0 3.412 0 4.059c0 5.25 1.372 10.205 3.864 13.95 2.463 3.701 5.744 5.825 9.288 6.032.804.874 1.653 1.587 2.538 2.13v5.209h-1.966a4.315 4.315 0 00-4.31 4.31v1.966h-.083a1.172 1.172 0 000 2.344h21.338a1.172 1.172 0 100-2.344h-.083V35.69a4.315 4.315 0 00-4.31-4.31H24.31v-5.208c.885-.544 1.734-1.257 2.538-2.131 3.544-.207 6.825-2.33 9.288-6.033C38.628 14.264 40 9.31 40 4.058c0-.646-.525-1.171-1.172-1.171zM5.815 16.71C3.76 13.621 2.552 9.582 2.368 5.23h4.068c.423 5.35 1.678 10.293 3.64 14.217.313.625.64 1.216.979 1.772-1.95-.736-3.753-2.275-5.24-4.509zm23.13 4.509c1.95-.736 3.753-2.275 5.24-4.509 2.055-3.089 3.262-7.128 3.447-11.48h-4.068c-.423 5.35-1.678 10.293-3.64 14.217a24.077 24.077 0 01-.979 1.772z"
          fill="#1B2130"></path>
</svg>