<?xml version="1.0" encoding="utf-8"?>
<!-- Generator: Adobe Illustrator 26.0.3, SVG Export Plug-In . SVG Version: 6.00 Build 0)  -->
<svg version="1.1" id="Warstwa_1" xmlns="http://www.w3.org/2000/svg" xmlns:xlink="http://www.w3.org/1999/xlink" x="0px" y="0px"
	 viewBox="0 0 1799.64 308.05" style="enable-background:new 0 0 1799.64 308.05;" xml:space="preserve">
<style type="text/css">
	.st0{fill:#FFFFFF;}
	.st1{fill:#1B2130;}
	.st2{fill:#27D87F;}
</style>
<g>
	<g>
		<path class="st2" d="M348.24,47.47c-30.16-2.42-58.03,7.74-78.82,25.82c-10.29,8.94-25.25,8.94-35.54,0
			c-20.78-18.05-48.57-28.22-78.7-25.83c-50.45,4-91.87,43.9-97.54,94.19c-7.26,64.45,43.21,119.27,106.23,119.27
			c27.25,0,52.13-10.26,71.03-27.11c9.63-8.59,23.87-8.59,33.5,0c18.89,16.85,43.8,27.11,71.04,27.11
			c62.98,0,113.37-54.75,106.2-119.14C440.04,91.49,398.69,51.52,348.24,47.47z M172.58,222.15c-44.82,5.54-82.56-32.39-76.82-77.17
			c3.92-30.56,28.61-55.21,59.17-59.1c44.93-5.72,82.86,32.38,76.98,77.33C227.92,193.77,203.16,218.37,172.58,222.15z"/>
	</g>
</g>
<g>
	<path class="st1" d="M667.25,150.58c-3.72-2.32-7.84-4.09-12.36-5.28c-4.52-1.2-9.07-2.09-13.66-2.69
		c-4.58-0.6-8.74-1.2-12.46-1.79c-3.72-0.6-6.78-1.46-9.17-2.59c-2.39-1.13-3.58-2.76-3.58-4.88c0-2.12,1.36-3.89,4.08-5.28
		c2.72-1.39,7.28-2.09,13.66-2.09c4.65,0,9.63,0.53,14.95,1.6c5.31,1.07,10.63,3.19,15.95,6.38l11.37-25.92
		c-5.32-3.06-11.86-5.38-19.64-6.98c-7.77-1.59-15.45-2.39-23.02-2.39c-11.43,0-21.03,1.59-28.8,4.79
		c-7.78,3.19-13.69,7.47-17.74,12.86c-4.06,5.38-6.08,11.53-6.08,18.44c0,6.11,1.13,11.16,3.39,15.15c2.26,3.99,5.28,7.11,9.07,9.37
		c3.79,2.26,8,4.02,12.66,5.28c4.65,1.27,9.2,2.19,13.65,2.79c4.45,0.6,8.61,1.13,12.46,1.59c3.85,0.47,6.91,1.23,9.17,2.29
		c2.26,1.07,3.39,2.59,3.39,4.58c0,2.39-1.23,4.29-3.69,5.68c-2.46,1.4-6.88,2.09-13.26,2.09c-6.51,0-13.16-0.93-19.94-2.79
		c-6.78-1.86-12.76-4.32-17.94-7.38l-11.16,25.92c5.31,3.19,12.33,5.85,21.03,7.97c8.7,2.13,17.64,3.19,26.81,3.19
		c11.7,0,21.53-1.59,29.51-4.79c7.97-3.19,13.95-7.44,17.94-12.76c3.99-5.31,5.98-11.23,5.98-17.74c0-6.24-1.17-11.33-3.49-15.25
		C673.99,156.03,670.97,152.91,667.25,150.58z"/>
</g>
<g>
	<path class="st1" d="M756.36,181.18c-3.45,0-6.21-1.06-8.27-3.19c-2.07-2.13-3.09-5.25-3.09-9.37v-35.69h24.72v-28.31H745V76.32
		h-37.88v28.31h-15.75v28.31h15.75v36.28c0,13.82,3.86,24.16,11.57,31c7.71,6.85,18.47,10.27,32.3,10.27c5.05,0,9.87-0.5,14.45-1.49
		c4.59-1,8.61-2.62,12.06-4.89l-9.57-26.32C764.6,180.05,760.74,181.18,756.36,181.18z"/>
</g>
<g>
	<path class="st1" d="M873.98,152.87c0,5.85-0.87,10.67-2.59,14.45c-1.73,3.79-4.16,6.55-7.28,8.27c-3.13,1.73-6.55,2.59-10.27,2.59
		c-5.72,0-10.13-1.83-13.26-5.48c-3.12-3.65-4.68-9.67-4.68-18.04v-54.23h-37.88v60.41c0,11.43,1.96,20.83,5.88,28.21
		c3.92,7.38,9.37,12.79,16.34,16.25c6.98,3.45,14.85,5.18,23.63,5.18c8.24,0,15.85-1.96,22.83-5.88c3.48-1.95,6.56-4.41,9.27-7.38
		v11.46h35.89V100.44h-37.88V152.87z"/>
</g>
<g>
	<path class="st1" d="M1019.9,110.06c-1.94-2.02-4.02-3.86-6.38-5.33c-6.51-4.05-14.35-6.08-23.52-6.08
		c-9.7,0-18.61,2.29-26.71,6.88c-8.11,4.58-14.52,11.03-19.24,19.34c-4.72,8.31-7.08,18.24-7.08,29.8c0,11.43,2.36,21.3,7.08,29.6
		c4.72,8.31,11.13,14.75,19.24,19.34c8.1,4.58,17.01,6.88,26.71,6.88c9.7,0,17.77-1.99,24.22-5.98c2.83-1.75,5.29-3.99,7.48-6.56
		v10.75h36.08V76.79h-37.88V110.06z M1017.51,168.52c-2,3.92-4.68,6.88-8.07,8.87s-7.21,2.99-11.46,2.99c-4.39,0-8.27-1-11.66-2.99
		c-3.39-1.99-6.08-4.95-8.07-8.87c-2-3.92-2.99-8.54-2.99-13.85c0-5.71,0.99-10.43,2.99-14.16c2-3.72,4.68-6.58,8.07-8.57
		c3.39-1.99,7.28-2.99,11.66-2.99c4.25,0,8.07,1,11.46,2.99c3.39,2,6.08,4.85,8.07,8.57c1.99,3.72,2.99,8.44,2.99,14.16
		C1020.5,159.99,1019.5,164.61,1017.51,168.52z"/>
</g>
<g>
	<rect x="1088.68" y="100.44" class="st1" width="37.88" height="108.25"/>
</g>
<g>
	<path class="st1" d="M1243.48,105.83c-9.24-4.79-19.77-7.18-31.6-7.18c-11.83,0-22.33,2.39-31.5,7.18
		c-9.17,4.78-16.38,11.4-21.63,19.84c-5.25,8.44-7.87,18.11-7.87,29.01c0,10.76,2.62,20.37,7.87,28.81
		c5.25,8.44,12.46,15.05,21.63,19.84c9.17,4.78,19.67,7.18,31.5,7.18c11.83,0,22.36-2.39,31.6-7.18
		c9.23-4.79,16.48-11.4,21.73-19.84c5.25-8.44,7.87-18.04,7.87-28.81c0-10.9-2.62-20.56-7.87-29.01
		C1259.95,117.22,1252.71,110.61,1243.48,105.83z M1231.51,168.52c-2.06,3.92-4.78,6.88-8.17,8.87s-7.21,2.99-11.46,2.99
		c-4.26,0-8.07-1-11.46-2.99c-3.39-1.99-6.12-4.95-8.18-8.87c-2.06-3.92-3.09-8.6-3.09-14.05c0-5.58,1.03-10.23,3.09-13.95
		c2.06-3.72,4.79-6.58,8.18-8.57c3.39-1.99,7.21-2.99,11.46-2.99c4.25,0,8.07,1,11.46,2.99c3.39,2,6.11,4.85,8.17,8.57
		c2.06,3.72,3.09,8.37,3.09,13.95C1234.6,159.92,1233.57,164.61,1231.51,168.52z"/>
</g>
<g>
	<path class="st1" d="M1429.29,113.76c-2.86-3.95-6.27-7.19-10.37-9.53c-6.51-3.72-14.42-5.58-23.72-5.58
		c-9.44,0-18.18,2.13-26.21,6.38c-8.05,4.25-14.49,10.3-19.34,18.14c-4.85,7.84-7.28,17.08-7.28,27.71
		c0,10.63,2.42,19.84,7.28,27.61c4.85,7.77,11.29,13.82,19.34,18.14c8.04,4.32,16.78,6.48,26.21,6.48c9.3,0,17.21-1.86,23.72-5.58
		c3.16-1.81,5.94-4.12,8.37-6.88v3.29c0,8.51-2.22,14.98-6.68,19.44c-4.46,4.45-11.73,6.68-21.83,6.68
		c-6.51,0-13.13-1.03-19.84-3.09c-6.71-2.06-12.33-4.82-16.85-8.27l-13.75,26.32c6.51,4.65,14.48,8.17,23.92,10.57
		c9.44,2.39,19.34,3.59,29.7,3.59c20.2,0,35.79-4.92,46.75-14.75s16.45-24.99,16.45-45.45v-88.52h-35.89V113.76z M1416.53,170.22
		c-3.46,1.86-7.51,2.79-12.16,2.79c-4.52,0-8.54-0.93-12.06-2.79c-3.52-1.86-6.35-4.45-8.47-7.78c-2.13-3.32-3.19-7.18-3.19-11.56
		c0-4.39,1.06-8.24,3.19-11.56c2.12-3.32,4.95-5.88,8.47-7.68s7.54-2.69,12.06-2.69c4.65,0,8.7,0.9,12.16,2.69
		c3.45,1.79,6.21,4.35,8.27,7.68c2.06,3.32,3.09,7.18,3.09,11.56c0,4.38-1.03,8.24-3.09,11.56
		C1422.75,165.77,1419.99,168.36,1416.53,170.22z"/>
</g>
<g>
	<path class="st1" d="M1659.45,103.83c-6.58-3.45-14.05-5.18-22.43-5.18c-10.1,0-19.04,2.53-26.81,7.58
		c-4.11,2.67-7.63,5.87-10.65,9.54c-2.46-3.92-5.52-7.14-9.19-9.64c-7.31-4.98-15.89-7.47-25.72-7.47c-8.51,0-16.22,1.99-23.13,5.98
		c-3.35,1.93-6.33,4.33-8.97,7.14v-11.33h-36.28v108.25h37.88v-53.43c0-5.71,0.83-10.33,2.49-13.85c1.66-3.52,3.95-6.15,6.88-7.88
		c2.92-1.72,6.18-2.59,9.77-2.59c5.18,0,9.2,1.76,12.06,5.28c2.85,3.52,4.28,9.14,4.28,16.84v55.62h37.88v-53.43
		c0-5.71,0.8-10.33,2.4-13.85c1.59-3.52,3.82-6.15,6.68-7.88c2.86-1.72,6.15-2.59,9.87-2.59c5.05,0,9.04,1.76,11.96,5.28
		c2.92,3.52,4.39,9.14,4.39,16.84v55.62h37.88v-61.8c0-11.16-1.89-20.27-5.68-27.31C1671.21,112.54,1666.03,107.29,1659.45,103.83z"
		/>
</g>
<g>
	<rect x="1711.18" y="100.44" class="st1" width="37.88" height="108.25"/>
</g>
</svg>
