<?xml version="1.0" encoding="utf-8"?>
<!-- Generator: Adobe Illustrator 26.0.3, SVG Export Plug-In . SVG Version: 6.00 Build 0)  -->
<svg version="1.1" id="Warstwa_1" xmlns="http://www.w3.org/2000/svg" xmlns:xlink="http://www.w3.org/1999/xlink" x="0px" y="0px"
	 viewBox="0 0 2000 2000" style="enable-background:new 0 0 2000 2000;" xml:space="preserve">
<style type="text/css">
	
		.st0{fill:none;stroke:#FFFFFF;stroke-width:9;stroke-linecap:round;stroke-linejoin:round;stroke-miterlimit:10;stroke-dasharray:0,17,0,17,0,17;}
	
		.st1{fill:none;stroke:#E0F9ED;stroke-width:8.2857;stroke-linecap:round;stroke-linejoin:round;stroke-miterlimit:10;stroke-dasharray:0,17,0,17,0,17;}
	
		.st2{fill:none;stroke:#C1F4DA;stroke-width:7.5714;stroke-linecap:round;stroke-linejoin:round;stroke-miterlimit:10;stroke-dasharray:0,17,0,17,0,17;}
	
		.st3{fill:none;stroke:#A2EEC8;stroke-width:6.8571;stroke-linecap:round;stroke-linejoin:round;stroke-miterlimit:10;stroke-dasharray:0,17,0,17,0,17;}
	
		.st4{fill:none;stroke:#84E9B6;stroke-width:6.1429;stroke-linecap:round;stroke-linejoin:round;stroke-miterlimit:10;stroke-dasharray:0,17,0,17,0,17;}
	
		.st5{fill:none;stroke:#65E3A4;stroke-width:5.4286;stroke-linecap:round;stroke-linejoin:round;stroke-miterlimit:10;stroke-dasharray:0,17,0,17,0,17;}
	
		.st6{fill:none;stroke:#46DE91;stroke-width:4.7143;stroke-linecap:round;stroke-linejoin:round;stroke-miterlimit:10;stroke-dasharray:0,17,0,17,0,17;}
	
		.st7{fill:none;stroke:#27D87F;stroke-width:4;stroke-linecap:round;stroke-linejoin:round;stroke-miterlimit:10;stroke-dasharray:0,17,0,17,0,17;}
	
		.st8{fill:none;stroke:#27D87F;stroke-width:9;stroke-linecap:round;stroke-linejoin:round;stroke-miterlimit:10;stroke-dasharray:0,17,0,17,0,17;}
	
		.st9{fill:none;stroke:#46DE91;stroke-width:8.2857;stroke-linecap:round;stroke-linejoin:round;stroke-miterlimit:10;stroke-dasharray:0,17,0,17,0,17;}
	
		.st10{fill:none;stroke:#65E3A4;stroke-width:7.5714;stroke-linecap:round;stroke-linejoin:round;stroke-miterlimit:10;stroke-dasharray:0,17,0,17,0,17;}
	
		.st11{fill:none;stroke:#84E9B6;stroke-width:6.8571;stroke-linecap:round;stroke-linejoin:round;stroke-miterlimit:10;stroke-dasharray:0,17,0,17,0,17;}
	
		.st12{fill:none;stroke:#A2EEC8;stroke-width:6.1429;stroke-linecap:round;stroke-linejoin:round;stroke-miterlimit:10;stroke-dasharray:0,17,0,17,0,17;}
	
		.st13{fill:none;stroke:#C1F4DA;stroke-width:5.4286;stroke-linecap:round;stroke-linejoin:round;stroke-miterlimit:10;stroke-dasharray:0,17,0,17,0,17;}
	
		.st14{fill:none;stroke:#E0F9ED;stroke-width:4.7143;stroke-linecap:round;stroke-linejoin:round;stroke-miterlimit:10;stroke-dasharray:0,17,0,17,0,17;}
	
		.st15{fill:none;stroke:#FFFFFF;stroke-width:4;stroke-linecap:round;stroke-linejoin:round;stroke-miterlimit:10;stroke-dasharray:0,17,0,17,0,17;}
	
		.st16{fill:none;stroke:#25BE74;stroke-width:8.2857;stroke-linecap:round;stroke-linejoin:round;stroke-miterlimit:10;stroke-dasharray:0,17,0,17,0,17;}
	
		.st17{fill:none;stroke:#24A468;stroke-width:7.5714;stroke-linecap:round;stroke-linejoin:round;stroke-miterlimit:10;stroke-dasharray:0,17,0,17,0,17;}
	
		.st18{fill:none;stroke:#228A5D;stroke-width:6.8571;stroke-linecap:round;stroke-linejoin:round;stroke-miterlimit:10;stroke-dasharray:0,17,0,17,0,17;}
	
		.st19{fill:none;stroke:#206F52;stroke-width:6.1429;stroke-linecap:round;stroke-linejoin:round;stroke-miterlimit:10;stroke-dasharray:0,17,0,17,0,17;}
	
		.st20{fill:none;stroke:#1E5547;stroke-width:5.4286;stroke-linecap:round;stroke-linejoin:round;stroke-miterlimit:10;stroke-dasharray:0,17,0,17,0,17;}
	
		.st21{fill:none;stroke:#1D3B3B;stroke-width:4.7143;stroke-linecap:round;stroke-linejoin:round;stroke-miterlimit:10;stroke-dasharray:0,17,0,17,0,17;}
	
		.st22{fill:none;stroke:#1B2130;stroke-width:4;stroke-linecap:round;stroke-linejoin:round;stroke-miterlimit:10;stroke-dasharray:0,17,0,17,0,17;}
	
		.st23{fill:none;stroke:#1B2130;stroke-width:5;stroke-linecap:round;stroke-linejoin:round;stroke-miterlimit:10;stroke-dasharray:0,17,0,17,0,17;}
	
		.st24{fill:none;stroke:#1D383A;stroke-width:5.5;stroke-linecap:round;stroke-linejoin:round;stroke-miterlimit:10;stroke-dasharray:0,17,0,17,0,17;}
	
		.st25{fill:none;stroke:#1E4F44;stroke-width:6;stroke-linecap:round;stroke-linejoin:round;stroke-miterlimit:10;stroke-dasharray:0,17,0,17,0,17;}
	
		.st26{fill:none;stroke:#20664E;stroke-width:6.5;stroke-linecap:round;stroke-linejoin:round;stroke-miterlimit:10;stroke-dasharray:0,17,0,17,0,17;}
	
		.st27{fill:none;stroke:#217D58;stroke-width:7;stroke-linecap:round;stroke-linejoin:round;stroke-miterlimit:10;stroke-dasharray:0,17,0,17,0,17;}
	
		.st28{fill:none;stroke:#239361;stroke-width:7.5;stroke-linecap:round;stroke-linejoin:round;stroke-miterlimit:10;stroke-dasharray:0,17,0,17,0,17;}
	
		.st29{fill:none;stroke:#24AA6B;stroke-width:8;stroke-linecap:round;stroke-linejoin:round;stroke-miterlimit:10;stroke-dasharray:0,17,0,17,0,17;}
	
		.st30{fill:none;stroke:#26C175;stroke-width:8.5;stroke-linecap:round;stroke-linejoin:round;stroke-miterlimit:10;stroke-dasharray:0,17,0,17,0,17;}
	
		.st31{fill:none;stroke:#E4FAEF;stroke-width:4.625;stroke-linecap:round;stroke-linejoin:round;stroke-miterlimit:10;stroke-dasharray:0,17,0,17,0,17;}
	
		.st32{fill:none;stroke:#C9F5DF;stroke-width:5.25;stroke-linecap:round;stroke-linejoin:round;stroke-miterlimit:10;stroke-dasharray:0,17,0,17,0,17;}
	
		.st33{fill:none;stroke:#AEF0CF;stroke-width:5.875;stroke-linecap:round;stroke-linejoin:round;stroke-miterlimit:10;stroke-dasharray:0,17,0,17,0,17;}
	
		.st34{fill:none;stroke:#93ECBF;stroke-width:6.5;stroke-linecap:round;stroke-linejoin:round;stroke-miterlimit:10;stroke-dasharray:0,17,0,17,0,17;}
	
		.st35{fill:none;stroke:#78E7AF;stroke-width:7.125;stroke-linecap:round;stroke-linejoin:round;stroke-miterlimit:10;stroke-dasharray:0,17,0,17,0,17;}
	
		.st36{fill:none;stroke:#5DE29F;stroke-width:7.75;stroke-linecap:round;stroke-linejoin:round;stroke-miterlimit:10;stroke-dasharray:0,17,0,17,0,17;}
	
		.st37{fill:none;stroke:#42DD8F;stroke-width:8.375;stroke-linecap:round;stroke-linejoin:round;stroke-miterlimit:10;stroke-dasharray:0,17,0,17,0,17;}
	
		.st38{fill:none;stroke:#42DD8F;stroke-width:4.625;stroke-linecap:round;stroke-linejoin:round;stroke-miterlimit:10;stroke-dasharray:0,17,0,17,0,17;}
	
		.st39{fill:none;stroke:#5DE29F;stroke-width:5.25;stroke-linecap:round;stroke-linejoin:round;stroke-miterlimit:10;stroke-dasharray:0,17,0,17,0,17;}
	
		.st40{fill:none;stroke:#78E7AF;stroke-width:5.875;stroke-linecap:round;stroke-linejoin:round;stroke-miterlimit:10;stroke-dasharray:0,17,0,17,0,17;}
	
		.st41{fill:none;stroke:#AEF0CF;stroke-width:7.125;stroke-linecap:round;stroke-linejoin:round;stroke-miterlimit:10;stroke-dasharray:0,17,0,17,0,17;}
	
		.st42{fill:none;stroke:#C9F5DF;stroke-width:7.75;stroke-linecap:round;stroke-linejoin:round;stroke-miterlimit:10;stroke-dasharray:0,17,0,17,0,17;}
	
		.st43{fill:none;stroke:#E4FAEF;stroke-width:8.375;stroke-linecap:round;stroke-linejoin:round;stroke-miterlimit:10;stroke-dasharray:0,17,0,17,0,17;}
</style>
<g>
	<path class="st7" d="M410.79,1800.92c-43.95-109.29-91.81-279.68-25.46-438.6c97.18-232.75,358.6-247.51,597.7-458.67
		C1115.8,786.41,1279.75,575,1353.31,167.92"/>
	<path class="st38" d="M383.18,1804.82c-23.89-77.88-34.96-205.74-10.04-324.74c7.54-36.01,19.02-71.87,34.2-107.27
		c72.56-168.36,192.34-239.8,352.58-342.74c71.05-45.64,147.56-88.62,225.15-145.07c95.99-69.82,206.15-173.95,302-357.45
		c52.05-99.66,95.03-216.02,123.35-348.25"/>
	<path class="st39" d="M355.57,1808.71c-13.59-70.75,1.48-204.59,33.98-317.72c10.46-36.42,24.18-72.22,39.78-107.71
		c77.25-174.14,168.69-261.15,324.7-375.61c71.02-52.11,150.12-92.04,233.07-141.34c104.37-62.04,224.18-151.47,334.89-329.49
		c63.64-102.34,113.81-219.63,145.52-346.16"/>
	<path class="st40" d="M327.96,1812.61c-3.29-63.62,38.54-203.41,78-310.7c13.55-36.83,29.27-72.61,45.37-108.15
		c81.57-180.09,144.89-282.79,296.82-408.48c70.94-58.69,152.79-95.34,240.98-137.62c112.89-54.12,243.05-128.65,367.78-301.52
		c75.65-104.85,132.6-223.25,167.7-344.08"/>
	<path class="st34" d="M300.35,1816.5c7.01-56.49,76.15-202.09,122.02-303.68c16.8-37.21,34.43-72.96,50.96-108.59
		c86.23-185.88,120.93-304.64,268.94-441.35c70.79-65.38,155.54-98.52,248.9-133.9c121.51-46.04,262.53-105.42,400.67-273.56
		c88.02-107.13,151.38-226.86,189.87-342"/>
	<path class="st41" d="M272.74,1820.4c17.31-49.36,114.22-200.56,166.04-296.66c20.23-37.51,39.66-73.27,56.54-109.03
		c91.29-191.49,96.79-326.67,241.05-474.22c70.55-72.15,158.33-101.57,256.81-130.17c130.18-37.8,282.43-81.78,433.57-245.6
		c100.68-109.13,170.17-230.47,212.05-339.91"/>
	<path class="st42" d="M245.12,1824.29c27.61-42.24,152.63-198.75,210.06-289.63c23.81-37.69,44.82-73.62,62.13-109.47
		c95.98-197.27,72.48-348.82,213.17-507.09c70.22-78.98,161.12-104.51,264.73-126.45c138.86-29.4,302.61-57.74,466.46-217.64
		c113.57-110.84,188.95-234.09,234.22-337.83"/>
	<path class="st43" d="M217.51,1828.19c37.9-35.11,191.29-196.63,254.08-282.61c27.54-37.72,49.98-73.97,67.72-109.91
		c100.66-203.06,48-371.05,185.29-539.95c69.8-85.87,163.9-107.35,272.64-122.73c147.51-20.86,322.96-33.33,499.35-189.68
		c126.63-112.24,207.74-237.7,256.4-335.75"/>
	<path class="st0" d="M189.9,1832.08c48.2-27.98,230.09-194.17,298.11-275.59c213.36-255.39,73.55-472.71,230.72-683.17
		c164.24-219.94,486.13-15.84,812.8-280.72c139.81-113.36,226.52-241.31,278.57-333.66"/>
</g>
</svg>
