<?xml version="1.0" encoding="utf-8"?>
<!-- Generator: Adobe Illustrator 26.0.3, SVG Export Plug-In . SVG Version: 6.00 Build 0)  -->
<svg version="1.1" id="Warstwa_1" xmlns="http://www.w3.org/2000/svg" xmlns:xlink="http://www.w3.org/1999/xlink" x="0px" y="0px"
	 viewBox="0 0 1799.64 308.05" style="enable-background:new 0 0 1799.64 308.05;" xml:space="preserve">
<style type="text/css">
	.st0{fill:#FFFFFF;}
	.st1{fill:#1B2130;}
	.st2{fill:#27D87F;}
</style>
<g>
	<g>
		<path class="st1" d="M182.01,136.44c-5.38-3.36-11.33-5.91-17.86-7.64c-6.54-1.73-13.11-3.03-19.75-3.89
			c-6.62-0.86-12.64-1.73-18.01-2.59c-5.38-0.86-9.8-2.11-13.26-3.75c-3.46-1.63-5.18-3.98-5.18-7.06c0-3.07,1.97-5.62,5.9-7.64
			c3.94-2.01,10.52-3.03,19.75-3.03c6.72,0,13.92,0.77,21.61,2.31c7.68,1.54,15.37,4.61,23.05,9.22l16.43-37.47
			c-7.69-4.42-17.15-7.78-28.39-10.09c-11.23-2.3-22.33-3.46-33.28-3.46c-16.52,0-30.41,2.3-41.64,6.92
			C80.14,72.9,71.58,79.09,65.73,86.87c-5.86,7.78-8.79,16.67-8.79,26.66c0,8.84,1.63,16.14,4.9,21.9
			c3.27,5.76,7.64,10.28,13.11,13.55c5.48,3.27,11.57,5.81,18.3,7.64c6.72,1.83,13.3,3.17,19.74,4.04
			c6.44,0.86,12.44,1.63,18.01,2.3c5.57,0.67,9.99,1.78,13.26,3.32c3.26,1.54,4.9,3.75,4.9,6.63c0,3.46-1.78,6.2-5.33,8.21
			c-3.56,2.02-9.95,3.03-19.17,3.03c-9.41,0-19.02-1.34-28.82-4.03c-9.8-2.69-18.44-6.24-25.93-10.66L53.77,206.9
			c7.68,4.61,17.82,8.46,30.4,11.53c12.58,3.07,25.51,4.61,38.76,4.61c16.91,0,31.13-2.3,42.66-6.92
			c11.52-4.61,20.17-10.76,25.93-18.44c5.77-7.68,8.65-16.23,8.65-25.65c0-9.03-1.68-16.38-5.04-22.05
			C191.76,144.32,187.39,139.81,182.01,136.44z"/>
	</g>
	<g>
		<path class="st1" d="M310.82,180.68c-4.99,0-8.98-1.54-11.95-4.61c-2.99-3.07-4.47-7.59-4.47-13.55v-51.59h35.74V70.02H294.4
			V29.09h-54.76v40.92h-22.76v40.92h22.76v52.45c0,19.98,5.57,34.92,16.72,44.81c11.14,9.9,26.7,14.84,46.69,14.84
			c7.3,0,14.27-0.72,20.89-2.16c6.63-1.44,12.44-3.79,17.43-7.06l-13.83-38.04C322.74,179.05,317.16,180.68,310.82,180.68z"/>
	</g>
	<g>
		<path class="st1" d="M480.86,139.76c0,8.46-1.25,15.42-3.75,20.89c-2.5,5.48-6.01,9.46-10.52,11.96
			c-4.52,2.5-9.47,3.75-14.85,3.75c-8.26,0-14.65-2.64-19.17-7.92c-4.52-5.28-6.77-13.98-6.77-26.08V63.96h-54.75v87.32
			c0,16.53,2.83,30.12,8.5,40.78c5.66,10.66,13.55,18.49,23.63,23.49c10.09,4.99,21.47,7.49,34.15,7.49c11.91,0,22.91-2.83,33-8.5
			c5.03-2.82,9.49-6.38,13.4-10.66v16.57h51.88V63.96h-54.75V139.76z"/>
	</g>
	<g>
		<path class="st1" d="M691.81,77.87c-2.81-2.92-5.81-5.59-9.23-7.71c-9.41-5.86-20.75-8.79-34-8.79c-14.02,0-26.9,3.31-38.61,9.94
			c-11.73,6.63-20.99,15.95-27.81,27.95c-6.82,12.01-10.23,26.37-10.23,43.09c0,16.52,3.41,30.79,10.23,42.8
			c6.82,12.01,16.09,21.33,27.81,27.95c11.71,6.63,24.59,9.94,38.61,9.94s25.7-2.88,35.02-8.65c4.09-2.53,7.64-5.77,10.81-9.48
			v15.53h52.16V29.77h-54.75V77.87z M688.35,162.38c-2.88,5.67-6.77,9.94-11.67,12.82c-4.9,2.88-10.43,4.32-16.57,4.32
			c-6.34,0-11.96-1.44-16.86-4.32c-4.9-2.88-8.79-7.15-11.67-12.82c-2.88-5.66-4.32-12.34-4.32-20.03c0-8.26,1.44-15.08,4.32-20.46
			c2.88-5.38,6.77-9.51,11.67-12.39c4.9-2.88,10.52-4.32,16.86-4.32c6.15,0,11.67,1.44,16.57,4.32c4.9,2.88,8.79,7.02,11.67,12.39
			c2.88,5.38,4.32,12.2,4.32,20.46C692.67,150.04,691.23,156.71,688.35,162.38z"/>
	</g>
	<g>
		<rect x="791.23" y="63.96" class="st1" width="54.75" height="156.49"/>
	</g>
	<g>
		<path class="st1" d="M1015.01,71.74c-13.36-6.92-28.58-10.37-45.68-10.37c-17.1,0-32.28,3.46-45.53,10.37
			c-13.26,6.91-23.68,16.48-31.27,28.67c-7.59,12.2-11.38,26.18-11.38,41.93c0,15.56,3.79,29.45,11.38,41.64
			c7.59,12.2,18.01,21.76,31.27,28.67c13.26,6.91,28.43,10.37,45.53,10.37c17.1,0,32.32-3.46,45.68-10.37
			c13.35-6.92,23.82-16.47,31.41-28.67c7.59-12.2,11.38-26.08,11.38-41.64c0-15.75-3.79-29.73-11.38-41.93
			C1038.83,88.22,1028.36,78.66,1015.01,71.74z M997.71,162.38c-2.98,5.67-6.91,9.94-11.81,12.82c-4.9,2.88-10.43,4.32-16.57,4.32
			c-6.15,0-11.67-1.44-16.57-4.32c-4.9-2.88-8.84-7.15-11.82-12.82c-2.98-5.66-4.47-12.44-4.47-20.32c0-8.07,1.49-14.79,4.47-20.17
			c2.98-5.38,6.92-9.51,11.82-12.39c4.9-2.88,10.42-4.32,16.57-4.32c6.15,0,11.67,1.44,16.57,4.32c4.9,2.88,8.83,7.02,11.81,12.39
			c2.98,5.38,4.47,12.1,4.47,20.17C1002.18,149.94,1000.69,156.71,997.71,162.38z"/>
	</g>
	<g>
		<path class="st1" d="M1283.62,83.21c-4.14-5.7-9.06-10.39-14.99-13.77c-9.41-5.38-20.84-8.07-34.29-8.07
			c-13.64,0-26.28,3.08-37.89,9.22c-11.63,6.15-20.94,14.89-27.95,26.22c-7.02,11.34-10.52,24.69-10.52,40.06s3.5,28.67,10.52,39.91
			c7.01,11.24,16.32,19.98,27.95,26.22c11.62,6.24,24.25,9.36,37.89,9.36c13.45,0,24.88-2.69,34.29-8.07
			c4.57-2.61,8.59-5.95,12.1-9.95v4.76c0,12.3-3.21,21.66-9.65,28.1c-6.44,6.44-16.96,9.65-31.56,9.65
			c-9.41,0-18.98-1.49-28.67-4.46c-9.7-2.98-17.82-6.97-24.35-11.96l-19.88,38.04c9.41,6.72,20.94,11.82,34.58,15.27
			c13.64,3.46,27.96,5.19,42.94,5.19c29.21,0,51.73-7.11,67.58-21.33c15.85-14.22,23.78-36.12,23.78-65.7V63.96h-51.88V83.21z
			 M1265.18,164.83c-5,2.69-10.86,4.04-17.58,4.04c-6.54,0-12.35-1.34-17.44-4.04c-5.09-2.69-9.18-6.44-12.24-11.24
			c-3.08-4.8-4.62-10.37-4.62-16.71c0-6.34,1.54-11.91,4.62-16.72c3.07-4.8,7.16-8.5,12.24-11.1s10.9-3.89,17.44-3.89
			c6.72,0,12.57,1.3,17.58,3.89c4.99,2.59,8.98,6.29,11.96,11.1c2.98,4.8,4.47,10.37,4.47,16.72c0,6.34-1.49,11.91-4.47,16.71
			C1274.16,158.39,1270.17,162.14,1265.18,164.83z"/>
	</g>
	<g>
		<path class="st1" d="M1616.34,68.86c-9.52-4.99-20.32-7.49-32.42-7.49c-14.6,0-27.52,3.65-38.76,10.95
			c-5.94,3.86-11.03,8.49-15.39,13.79c-3.56-5.67-7.99-10.32-13.28-13.94c-10.57-7.2-22.97-10.81-37.18-10.81
			c-12.3,0-23.44,2.88-33.43,8.65c-4.85,2.8-9.16,6.26-12.97,10.33V63.96h-52.45v156.49h54.75v-77.23c0-8.26,1.2-14.94,3.61-20.03
			c2.4-5.09,5.71-8.89,9.94-11.39c4.23-2.49,8.94-3.74,14.12-3.74c7.49,0,13.3,2.55,17.44,7.64c4.12,5.09,6.19,13.21,6.19,24.35
			v80.41h54.75v-77.23c0-8.26,1.15-14.94,3.46-20.03c2.3-5.09,5.52-8.89,9.65-11.39c4.13-2.49,8.89-3.74,14.27-3.74
			c7.3,0,13.07,2.55,17.29,7.64c4.23,5.09,6.34,13.21,6.34,24.35v80.41h54.75v-89.34c0-16.14-2.74-29.3-8.21-39.48
			C1633.34,81.45,1625.85,73.86,1616.34,68.86z"/>
	</g>
	<g>
		<rect x="1691.12" y="63.96" class="st1" width="54.75" height="156.49"/>
	</g>
</g>
</svg>
