<?xml version="1.0" encoding="utf-8"?>
<!-- Generator: Adobe Illustrator 26.0.3, SVG Export Plug-In . SVG Version: 6.00 Build 0)  -->
<svg version="1.1" id="Warstwa_1" xmlns="http://www.w3.org/2000/svg" xmlns:xlink="http://www.w3.org/1999/xlink" x="0px" y="0px"
	 viewBox="0 0 1799.64 1086.43" style="enable-background:new 0 0 1799.64 1086.43;" xml:space="preserve">
<style type="text/css">
	.st0{fill:#FFFFFF;}
	.st1{fill:#1B2130;}
	.st2{fill:#27D87F;}
</style>
<g>
	<g>
		<path class="st1" d="M1308.92,92.02c-127.73-10.26-245.71,32.79-333.79,109.33c-43.56,37.86-106.94,37.85-150.5,0
			c-88-76.45-205.67-119.48-333.25-109.36C277.73,108.94,102.35,277.87,78.35,490.83C47.59,763.75,261.32,995.91,528.19,995.91
			c115.38,0,220.75-43.44,300.76-114.8c40.79-36.38,101.09-36.37,141.87,0.02c79.98,71.35,185.46,114.78,300.83,114.78
			c266.68,0,480.08-231.84,449.7-504.51C1697.63,278.41,1522.53,109.18,1308.92,92.02z M565.05,831.71
			c-189.81,23.44-349.59-137.16-325.29-326.79c16.58-129.4,121.13-233.8,250.55-250.27c190.26-24.21,350.9,137.12,325.99,327.46
			C799.38,711.51,694.57,815.71,565.05,831.71z"/>
	</g>
</g>
</svg>
