<?xml version="1.0" encoding="utf-8"?>
<!-- Generator: Adobe Illustrator 26.0.3, SVG Export Plug-In . SVG Version: 6.00 Build 0)  -->
<svg version="1.1" id="Warstwa_1" xmlns="http://www.w3.org/2000/svg" xmlns:xlink="http://www.w3.org/1999/xlink" x="0px" y="0px"
	 viewBox="0 0 1200 1200" style="enable-background:new 0 0 1200 1200;" xml:space="preserve">
<style type="text/css">
	.st0{fill:#1B2130;}
	.st1{fill:#27D87F;}
	.st2{fill:#FFFFFF;}
</style>
<g>
	<g>
		<polygon class="st0" points="314.29,576.82 301.75,614.17 289.64,576.82 265.12,576.82 252.57,613.72 240.61,576.82 
			213.28,576.82 237.54,646.67 265.63,646.67 276.65,614.34 287.21,646.67 315.31,646.67 339.57,576.82 		"/>
		<path class="st0" d="M398.25,579.63c-5.83-2.73-12.19-4.09-19.09-4.09c-7.49,0-14.24,1.53-20.24,4.6
			c-6,3.06-10.73,7.32-14.18,12.77c-3.45,5.45-5.17,11.7-5.17,18.77c0,6.89,1.74,13.09,5.24,18.58c3.49,5.49,8.4,9.81,14.75,12.96
			c6.34,3.15,13.77,4.73,22.28,4.73c6.98,0,12.96-0.96,17.94-2.88c4.98-1.92,9.17-4.7,12.58-8.37l-15.07-15.19
			c-2.3,1.7-4.49,2.98-6.58,3.83c-2.09,0.85-4.75,1.28-7.98,1.28c-3.15,0-5.83-0.53-8.04-1.6c-2.22-1.06-3.92-2.66-5.11-4.79
			c-0.32-0.56-0.58-1.16-0.82-1.78h48.45c0.08-1.02,0.17-2.15,0.26-3.39c0.08-1.23,0.13-2.36,0.13-3.38c0-7.92-1.77-14.56-5.3-19.92
			C408.76,586.4,404.08,582.35,398.25,579.63z M373.22,596.81c1.74-1.07,3.81-1.6,6.19-1.6c2.38,0,4.42,0.53,6.13,1.6
			c1.7,1.06,3.04,2.55,4.02,4.47c0.5,0.98,0.87,2.07,1.11,3.26h-22.55c0.23-1.19,0.59-2.28,1.06-3.26
			C370.13,599.36,371.47,597.87,373.22,596.81z"/>
		<path class="st0" d="M502.38,592.33c-3.06-5.41-7.15-9.55-12.26-12.45c-5.11-2.89-10.73-4.34-16.86-4.34c-6.05,0-11.05,1.3-15,3.9
			c-0.98,0.64-1.89,1.37-2.74,2.18v-29.7h-28.86v94.75h27.46v-5.76c1.1,1.24,2.33,2.31,3.7,3.21c3.92,2.55,9.07,3.83,15.45,3.83
			c6.13,0,11.75-1.47,16.86-4.41c5.11-2.94,9.19-7.11,12.26-12.51c3.07-5.41,4.6-11.85,4.6-19.34
			C506.98,604.19,505.45,597.74,502.38,592.33z M476.2,619.28c-1.02,2.09-2.38,3.64-4.09,4.66c-1.7,1.02-3.62,1.53-5.75,1.53
			c-2.13,0-4.04-0.51-5.74-1.53c-1.7-1.02-3.07-2.57-4.09-4.66c-1.02-2.08-1.53-4.62-1.53-7.6c0-3.07,0.51-5.6,1.53-7.6
			c1.02-2,2.38-3.51,4.09-4.53c1.7-1.02,3.62-1.53,5.74-1.53c2.13,0,4.04,0.51,5.75,1.53c1.7,1.02,3.07,2.53,4.09,4.53
			c1.02,2,1.53,4.53,1.53,7.6C477.74,614.66,477.22,617.2,476.2,619.28z"/>
		<path class="st0" d="M573.64,598.66c-3.32-2.84-7.49-4.87-12.52-6.11l16.48-16.75v-18.52h-66.66v22.73h31.96l-13.19,13.41v18.51
			h11.88c3.83,0,6.55,0.53,8.17,1.6c1.62,1.07,2.43,2.58,2.43,4.53c0,2.3-1.08,4.02-3.26,5.17c-2.17,1.15-4.96,1.72-8.37,1.72
			c-3.75,0-7.73-0.53-11.94-1.6c-4.22-1.06-8.24-2.7-12.07-4.91l-10.22,22.22c4.77,2.64,10.3,4.64,16.6,6s12.51,2.04,18.64,2.04
			c9.53,0,17.3-1.49,23.31-4.47c6-2.98,10.43-6.81,13.28-11.49c2.85-4.68,4.28-9.58,4.28-14.68
			C582.45,610.15,579.51,603.68,573.64,598.66z"/>
	</g>
	<g>
		<path class="st1" d="M856.19,592.24c-2.17-1.22-4.63-1.84-7.36-1.84c-2.66,0-5.08,0.61-7.25,1.84c-2.17,1.23-3.91,3-5.2,5.31
			c-1.3,2.31-1.95,5.11-1.95,8.41c0,3.22,0.65,6.03,1.95,8.41c1.29,2.38,3.03,4.19,5.2,5.41c2.17,1.22,4.59,1.84,7.25,1.84
			c2.73,0,5.18-0.61,7.36-1.84c2.17-1.23,3.9-3.03,5.2-5.41c1.3-2.38,1.95-5.19,1.95-8.41c0-3.29-0.65-6.1-1.95-8.41
			C860.09,595.23,858.36,593.46,856.19,592.24z"/>
		<path class="st1" d="M771,612.47c-1.43,1.26-2.15,2.84-2.15,4.73c0,2.1,0.82,3.77,2.47,4.99c1.64,1.23,3.87,1.84,6.67,1.84
			c2.8,0,5.31-0.63,7.52-1.89c2.21-1.26,3.76-3.18,4.68-5.78v-5.78h-11.25C775.08,610.58,772.44,611.21,771,612.47z"/>
		<path class="st1" d="M725.23,591.08c-2.1-1.23-4.56-1.84-7.36-1.84s-5.27,0.61-7.41,1.84c-2.14,1.22-3.8,2.94-4.99,5.15
			c-0.76,1.41-1.19,3.04-1.46,4.78h27.59c-0.24-1.76-0.65-3.41-1.43-4.83C728.98,594.01,727.34,592.31,725.23,591.08z"/>
		<path class="st1" d="M986.22,591.03c-3.91-35.05-31.87-63.65-66.84-68.28c-15.15-2.01-29.58,0.36-42.23,6
			c-20.95,9.34-43.23,15.32-66.17,15.32H779c-22.93,0-45.21-5.98-66.16-15.32c-12.65-5.64-27.07-8.01-42.22-6
			c-34.97,4.63-62.93,33.22-66.85,68.27c-5.26,47.07,31.44,86.93,77.45,86.93c11.63,0,22.65-2.56,32.56-7.13
			c21.54-9.95,45.05-14.89,68.78-14.89h24.85c23.73,0,47.24,4.94,68.78,14.89c9.9,4.58,20.93,7.13,32.56,7.13
			C954.77,677.95,991.47,638.1,986.22,591.03z M682.56,592.08c-0.63-0.14-1.25-0.25-1.84-0.32c-0.6-0.07-1.18-0.1-1.74-0.1
			c-4.63,0-8.3,1.3-11.04,3.89c-2.73,2.59-4.1,6.59-4.1,11.98v26.7h-16.4v-56.55h15.66v7.81c1.57-2.22,3.42-4.18,5.89-5.55
			c3.71-2.07,8.23-3.1,13.56-3.1V592.08z M747.09,608.32c-0.07,0.81-0.14,1.56-0.21,2.26h-42.72c0.35,1.52,0.86,2.94,1.63,4.21
			c1.4,2.31,3.33,4.08,5.78,5.31c2.45,1.23,5.39,1.84,8.83,1.84c2.94,0,5.55-0.46,7.83-1.37c2.27-0.91,4.36-2.28,6.25-4.1l8.72,9.46
			c-2.59,2.95-5.85,5.2-9.77,6.78c-3.93,1.57-8.44,2.37-13.56,2.37c-6.45,0-12.09-1.26-16.92-3.78c-4.84-2.53-8.59-5.98-11.25-10.36
			c-2.66-4.37-3.99-9.37-3.99-14.97c0-5.61,1.28-10.62,3.83-15.03c2.56-4.42,6.13-7.86,10.72-10.35c4.59-2.49,9.76-3.73,15.5-3.73
			c5.54,0,10.53,1.19,14.98,3.57c4.45,2.38,7.97,5.75,10.56,10.09c2.59,4.35,3.89,9.56,3.89,15.66
			C747.2,606.79,747.16,607.51,747.09,608.32z M806.58,634.23h-15.35v-7.47c-1.25,2.16-2.81,4.06-5.04,5.42
			c-3.15,1.93-7.22,2.9-12.19,2.9c-4.34,0-8.09-0.75-11.25-2.26c-3.15-1.5-5.59-3.55-7.3-6.15c-1.72-2.59-2.57-5.5-2.57-8.72
			c0-3.29,0.82-6.22,2.47-8.78c1.65-2.56,4.26-4.53,7.83-5.94c3.57-1.4,8.27-2.1,14.08-2.1h12.93v-0.11c0-3.5-1.07-6.23-3.21-8.2
			c-2.14-1.96-5.41-2.95-9.83-2.95c-3.01,0-5.97,0.47-8.88,1.42c-2.91,0.95-5.41,2.22-7.52,3.84l-5.78-11.45
			c3.08-2.24,6.8-3.94,11.14-5.1c4.34-1.16,8.76-1.73,13.24-1.73c8.62,0,15.31,2.03,20.07,6.09c4.76,4.06,7.15,10.41,7.15,19.03
			V634.23z M879.41,634.23h-15.66v-6.54c-1.41,1.73-3.02,3.19-4.89,4.28c-3.54,2.07-7.8,3.1-12.77,3.1c-5.33,0-10.12-1.21-14.4-3.63
			c-4.28-2.42-7.64-5.79-10.09-10.14c-2.45-4.34-3.68-9.46-3.68-15.34c0-5.89,1.22-11,3.68-15.34c2.45-4.35,5.81-7.73,10.09-10.14
			c4.27-2.42,9.07-3.63,14.4-3.63c4.77,0,8.93,1.05,12.51,3.15c1.66,0.98,3.1,2.24,4.41,3.68v-27.43h16.4V634.23z M925.13,637.7
			c-1.82,4.62-3.91,8.21-6.25,10.77c-2.35,2.55-4.94,4.36-7.78,5.41c-2.84,1.05-5.97,1.58-9.41,1.58c-2.87,0-5.75-0.46-8.62-1.37
			c-2.87-0.91-5.26-2.17-7.15-3.78l5.99-11.77c1.26,1.19,2.71,2.1,4.36,2.73c1.64,0.63,3.31,0.95,4.99,0.95
			c2.24,0,4.04-0.54,5.41-1.63c1.36-1.09,2.61-2.89,3.73-5.41l0.2-0.48l-24.38-57.01h16.82l15.91,38.37l16.04-38.37h15.66
			L925.13,637.7z"/>
	</g>
</g>
</svg>
