<?xml version="1.0" encoding="utf-8"?>
<!-- Generator: Adobe Illustrator 26.0.3, SVG Export Plug-In . SVG Version: 6.00 Build 0)  -->
<svg version="1.1" id="Warstwa_1" xmlns="http://www.w3.org/2000/svg" xmlns:xlink="http://www.w3.org/1999/xlink" x="0px" y="0px"
	 viewBox="0 0 1200 1200" style="enable-background:new 0 0 1200 1200;" xml:space="preserve">
<style type="text/css">

</style>
<g>
	<g>
		<polygon class="st0" points="516.42,492.28 503.89,529.62 491.78,492.28 467.26,492.28 454.71,529.18 442.74,492.28 
			415.42,492.28 439.68,562.13 467.77,562.13 478.79,529.8 489.35,562.13 517.44,562.13 541.71,492.28 		"/>
		<path class="st0" d="M600.38,495.09c-5.83-2.73-12.19-4.09-19.09-4.09c-7.49,0-14.24,1.53-20.24,4.6
			c-6,3.06-10.73,7.32-14.18,12.77c-3.45,5.45-5.17,11.7-5.17,18.77c0,6.89,1.75,13.09,5.24,18.58c3.49,5.49,8.4,9.81,14.75,12.96
			c6.34,3.15,13.77,4.73,22.28,4.73c6.98,0,12.96-0.96,17.94-2.88c4.98-1.92,9.17-4.7,12.58-8.37l-15.07-15.19
			c-2.3,1.7-4.49,2.98-6.58,3.83c-2.08,0.85-4.75,1.28-7.98,1.28c-3.15,0-5.83-0.53-8.04-1.6c-2.21-1.06-3.92-2.66-5.11-4.79
			c-0.3-0.54-0.46-1.19-0.68-1.78h48.31c0.08-1.02,0.17-2.15,0.25-3.39c0.08-1.23,0.13-2.36,0.13-3.38c0-7.92-1.77-14.56-5.3-19.92
			C610.9,501.86,606.21,497.81,600.38,495.09z M575.35,512.26c1.74-1.07,3.81-1.6,6.19-1.6c2.38,0,4.42,0.53,6.13,1.6
			c1.7,1.06,3.04,2.55,4.02,4.47c0.5,0.98,0.86,2.07,1.11,3.25h-22.54c0.23-1.19,0.58-2.28,1.06-3.25
			C572.27,514.81,573.61,513.33,575.35,512.26z"/>
		<path class="st0" d="M704.52,507.79c-3.06-5.4-7.15-9.56-12.26-12.45c-5.11-2.89-10.73-4.34-16.86-4.34c-6.05,0-11.05,1.3-15,3.9
			c-1.05,0.69-1.84,1.73-2.74,2.62v-30.14h-28.86v94.75h27.46V556c1.14,1.31,2.27,2.64,3.7,3.58c3.92,2.55,9.07,3.83,15.45,3.83
			c6.13,0,11.75-1.47,16.86-4.41c5.11-2.94,9.19-7.11,12.26-12.51c3.06-5.4,4.6-11.85,4.6-19.34
			C709.12,519.65,707.58,513.2,704.52,507.79z M678.34,534.73c-1.02,2.09-2.38,3.64-4.09,4.66c-1.7,1.02-3.62,1.53-5.75,1.53
			c-2.13,0-4.04-0.51-5.75-1.53c-1.7-1.02-3.06-2.57-4.09-4.66c-1.02-2.08-1.53-4.62-1.53-7.6c0-3.07,0.51-5.6,1.53-7.6
			c1.02-2,2.38-3.51,4.09-4.53c1.7-1.02,3.62-1.53,5.75-1.53c2.13,0,4.04,0.51,5.75,1.53c1.7,1.02,3.07,2.53,4.09,4.53
			c1.02,2,1.53,4.53,1.53,7.6C679.87,530.12,679.36,532.65,678.34,534.73z"/>
		<path class="st0" d="M775.77,514.11c-3.31-2.83-7.58-4.78-12.61-6.02l16.57-16.84v-18.52h-66.66v22.73h31.96l-13.19,13.41v18.52
			h11.88c3.83,0,6.56,0.53,8.17,1.6c1.62,1.07,2.43,2.58,2.43,4.53c0,2.3-1.08,4.02-3.25,5.17c-2.17,1.15-4.96,1.72-8.37,1.72
			c-3.75,0-7.72-0.53-11.94-1.6c-4.22-1.06-8.24-2.7-12.07-4.91l-10.22,22.22c4.77,2.64,10.3,4.64,16.6,6
			c6.3,1.36,12.51,2.04,18.64,2.04c9.53,0,17.3-1.49,23.31-4.47c6-2.98,10.43-6.81,13.28-11.49c2.85-4.68,4.28-9.58,4.28-14.68
			C784.58,525.61,781.65,519.13,775.77,514.11z"/>
	</g>
	<g>
		<path class="st0" d="M661.19,646.91c-2.17-1.22-4.63-1.84-7.36-1.84c-2.66,0-5.08,0.61-7.25,1.84c-2.17,1.23-3.91,3-5.2,5.31
			c-1.3,2.31-1.94,5.11-1.94,8.41c0,3.22,0.65,6.03,1.94,8.41c1.3,2.38,3.03,4.19,5.2,5.41c2.17,1.22,4.59,1.84,7.25,1.84
			c2.73,0,5.18-0.61,7.36-1.84c2.17-1.23,3.9-3.03,5.2-5.41c1.3-2.38,1.95-5.19,1.95-8.41c0-3.29-0.65-6.1-1.95-8.41
			C665.09,649.91,663.36,648.14,661.19,646.91z"/>
		<path class="st0" d="M576.01,667.14c-1.44,1.26-2.16,2.84-2.16,4.73c0,2.1,0.83,3.77,2.47,4.99c1.64,1.23,3.87,1.84,6.67,1.84
			c2.8,0,5.31-0.63,7.52-1.89c2.21-1.26,3.76-3.18,4.68-5.78v-5.78h-11.25C580.09,665.25,577.44,665.88,576.01,667.14z"/>
		<path class="st0" d="M530.23,645.76c-2.1-1.23-4.56-1.84-7.36-1.84s-5.27,0.61-7.41,1.84c-2.14,1.22-3.8,2.94-4.99,5.15
			c-0.76,1.41-1.19,3.04-1.46,4.78h27.59c-0.24-1.76-0.65-3.41-1.43-4.83C533.98,648.68,532.34,646.98,530.23,645.76z"/>
		<path class="st0" d="M791.22,645.71c-3.91-35.05-31.87-63.65-66.84-68.28c-15.15-2.01-29.57,0.36-42.23,6
			c-20.95,9.34-43.23,15.32-66.17,15.32H584c-22.93,0-45.21-5.98-66.16-15.32c-12.65-5.64-27.07-8.01-42.22-6
			c-34.97,4.63-62.93,33.22-66.85,68.27c-5.26,47.07,31.44,86.93,77.45,86.93c11.63,0,22.65-2.56,32.56-7.13
			c21.54-9.95,45.05-14.89,68.78-14.89h24.85c23.73,0,47.24,4.94,68.78,14.89c9.9,4.58,20.93,7.13,32.56,7.13
			C759.77,732.63,796.47,692.77,791.22,645.71z M487.56,646.75c-0.63-0.14-1.25-0.25-1.84-0.32c-0.6-0.07-1.17-0.1-1.73-0.1
			c-4.63,0-8.3,1.3-11.03,3.89c-2.73,2.59-4.1,6.59-4.1,11.98v26.7h-16.4v-56.55h15.66v7.81c1.57-2.22,3.42-4.18,5.89-5.55
			c3.71-2.07,8.23-3.1,13.56-3.1V646.75z M552.1,662.99c-0.07,0.81-0.14,1.56-0.21,2.26h-42.72c0.35,1.52,0.86,2.94,1.63,4.21
			c1.4,2.31,3.33,4.08,5.78,5.31c2.45,1.23,5.39,1.84,8.83,1.84c2.94,0,5.55-0.46,7.83-1.37c2.28-0.91,4.36-2.28,6.25-4.1l8.72,9.46
			c-2.59,2.95-5.85,5.2-9.77,6.78c-3.92,1.57-8.45,2.37-13.56,2.37c-6.45,0-12.09-1.26-16.92-3.78c-4.84-2.52-8.59-5.98-11.25-10.36
			c-2.66-4.37-3.99-9.37-3.99-14.97c0-5.61,1.28-10.62,3.84-15.03c2.56-4.42,6.13-7.86,10.72-10.35c4.59-2.49,9.76-3.73,15.5-3.73
			c5.54,0,10.53,1.19,14.98,3.57c4.45,2.38,7.97,5.75,10.56,10.09c2.59,4.35,3.89,9.56,3.89,15.66
			C552.2,661.47,552.16,662.19,552.1,662.99z M611.58,688.9h-15.35v-7.47c-1.25,2.15-2.81,4.06-5.04,5.42
			c-3.15,1.93-7.22,2.89-12.19,2.89c-4.34,0-8.09-0.75-11.25-2.26c-3.15-1.5-5.59-3.55-7.3-6.15c-1.72-2.59-2.57-5.5-2.57-8.72
			c0-3.29,0.82-6.22,2.47-8.78c1.65-2.56,4.26-4.53,7.83-5.94c3.57-1.4,8.27-2.1,14.09-2.1h12.93v-0.11c0-3.5-1.07-6.23-3.21-8.2
			c-2.14-1.96-5.41-2.95-9.83-2.95c-3.01,0-5.98,0.47-8.88,1.42c-2.91,0.95-5.41,2.22-7.52,3.84l-5.78-11.45
			c3.08-2.24,6.8-3.94,11.14-5.1c4.34-1.16,8.76-1.73,13.24-1.73c8.62,0,15.31,2.03,20.07,6.09c4.76,4.07,7.15,10.41,7.15,19.03
			V688.9z M684.42,688.9h-15.66v-6.54c-1.41,1.73-3.02,3.18-4.89,4.28c-3.54,2.07-7.8,3.1-12.77,3.1c-5.32,0-10.12-1.21-14.4-3.63
			s-7.64-5.79-10.09-10.14c-2.45-4.34-3.68-9.46-3.68-15.34c0-5.89,1.23-11,3.68-15.34c2.45-4.35,5.82-7.73,10.09-10.14
			s9.07-3.63,14.4-3.63c4.77,0,8.93,1.05,12.51,3.15c1.66,0.98,3.1,2.24,4.41,3.68v-27.43h16.4V688.9z M730.13,692.37
			c-1.82,4.62-3.91,8.21-6.25,10.77c-2.35,2.55-4.94,4.36-7.78,5.41c-2.84,1.05-5.98,1.58-9.41,1.58c-2.87,0-5.75-0.46-8.62-1.37
			c-2.87-0.91-5.26-2.17-7.15-3.78l5.99-11.77c1.26,1.19,2.71,2.1,4.36,2.73c1.64,0.63,3.31,0.95,4.99,0.95
			c2.24,0,4.05-0.54,5.41-1.63c1.36-1.09,2.61-2.89,3.73-5.41l0.2-0.48l-24.38-57.01h16.82l15.91,38.37l16.04-38.37h15.66
			L730.13,692.37z"/>
	</g>
</g>
</svg>
