<svg width="40" height="40" fill="none" xmlns="http://www.w3.org/2000/svg">
    <path d="M10.837 10.703h-.502l-.937 4.688h2.376l-.937-4.688zM29.795 20.078c.506 1.36 1.179 2.46 1.924 3.396.745-.936 1.496-2.037 2.002-3.396h-3.926z"
    fill="white"></path>
    <path d="M36.484 7.11H21.931l3.034 24.35c.054.995-.218 1.933-.868 2.667L18.958 40h17.526A3.52 3.52 0 0040 36.484v-25.78c0-1.94-1.577-3.595-3.516-3.595zm0 12.968h-.313c-.666 2.14-1.724 3.813-2.823 5.133.861.787 1.782 1.433 2.697 2.156a1.171 1.171 0 11-1.465 1.829c-.994-.785-1.928-1.442-2.861-2.299-.934.857-1.79 1.514-2.784 2.299a1.171 1.171 0 11-1.464-1.83c.915-.722 1.757-1.368 2.618-2.155-1.099-1.32-2.078-2.993-2.745-5.133h-.313a1.171 1.171 0 110-2.344h3.516v-1.172a1.171 1.171 0 112.344 0v1.172h3.593a1.171 1.171 0 110 2.344z"
    fill="white"></path>
    <path d="M19.075 3.08A3.52 3.52 0 0015.587 0H3.516A3.52 3.52 0 000 3.516v25.937a3.52 3.52 0 003.516 3.516h18.48c.342-.391.629-.636.64-1.146.004-.128-3.545-28.617-3.56-28.743zm-4.704 19.319a1.172 1.172 0 01-1.38-.919l-.748-3.746H8.929L8.18 21.48a1.165 1.165 0 01-1.379.919 1.172 1.172 0 01-.919-1.379L8.226 9.301c.11-.547.59-.942 1.149-.942h2.422c.558 0 1.039.395 1.149.942L15.29 21.02a1.172 1.172 0 01-.92 1.379zM13.692 35.313l.201 1.607c.134 1.077.85 2.175 2.026 2.724l3.935-4.331h-6.162z"
    fill="white"></path>
</svg>