<svg xmlns="http://www.w3.org/2000/svg" xmlns:xlink="http://www.w3.org/1999/xlink" version="1.1" width="256" height="256" viewBox="0 0 256 256" xml:space="preserve">
<desc>Created with Fabric.js 1.7.22</desc>
<defs>
</defs>
<g transform="translate(128 128) scale(0.72 0.72)" style="">
	<g style="stroke: none; stroke-width: 0; stroke-dasharray: none; stroke-linecap: butt; stroke-linejoin: miter; stroke-miterlimit: 10; fill: none; fill-rule: nonzero; opacity: 1;" transform="translate(-175.05 -175.05000000000004) scale(3.89 3.89)" >
	<path d="M 45 11.963 c -0.149 0 -0.299 -0.034 -0.437 -0.101 L 34.312 6.881 c -0.344 -0.167 -0.563 -0.517 -0.563 -0.899 s 0.219 -0.732 0.563 -0.899 l 10.251 -4.982 c 0.275 -0.134 0.599 -0.134 0.874 0 l 10.251 4.982 c 0.344 0.167 0.563 0.517 0.563 0.899 s -0.219 0.732 -0.563 0.899 l -10.251 4.981 C 45.299 11.93 45.149 11.963 45 11.963 z M 37.037 5.982 L 45 9.852 l 7.963 -3.87 L 45 2.112 L 37.037 5.982 z" style="stroke: none; stroke-width: 1; stroke-dasharray: none; stroke-linecap: butt; stroke-linejoin: miter; stroke-miterlimit: 10; fill: white; fill-rule: nonzero; opacity: 1;" transform=" matrix(1 0 0 1 0 0) " stroke-linecap="round" />
	<path d="M 45 24.187 c -0.149 0 -0.299 -0.034 -0.437 -0.101 l -10.251 -4.981 c -0.344 -0.167 -0.563 -0.517 -0.563 -0.899 V 5.982 c 0 -0.345 0.177 -0.665 0.469 -0.848 c 0.293 -0.184 0.659 -0.202 0.968 -0.052 L 45 9.852 l 9.813 -4.769 c 0.311 -0.15 0.677 -0.131 0.968 0.052 c 0.292 0.183 0.47 0.503 0.47 0.848 v 12.223 c 0 0.383 -0.219 0.732 -0.563 0.899 l -10.251 4.981 C 45.299 24.153 45.149 24.187 45 24.187 z M 35.749 17.579 L 45 22.075 l 9.251 -4.496 v -10 l -8.814 4.283 c -0.275 0.134 -0.599 0.134 -0.874 0 L 35.749 7.58 V 17.579 z" style="stroke: none; stroke-width: 1; stroke-dasharray: none; stroke-linecap: butt; stroke-linejoin: miter; stroke-miterlimit: 10; fill: white; fill-rule: nonzero; opacity: 1;" transform=" matrix(1 0 0 1 0 0) " stroke-linecap="round" />
	<path d="M 45 77.776 c -0.149 0 -0.299 -0.033 -0.437 -0.101 l -10.251 -4.981 c -0.344 -0.167 -0.563 -0.517 -0.563 -0.899 s 0.219 -0.732 0.563 -0.899 l 10.251 -4.981 c 0.275 -0.135 0.599 -0.135 0.874 0 l 10.251 4.981 c 0.344 0.167 0.563 0.517 0.563 0.899 s -0.219 0.732 -0.563 0.899 l -10.251 4.981 C 45.299 77.743 45.149 77.776 45 77.776 z M 37.037 71.795 L 45 75.664 l 7.963 -3.869 L 45 67.926 L 37.037 71.795 z" style="stroke: none; stroke-width: 1; stroke-dasharray: none; stroke-linecap: butt; stroke-linejoin: miter; stroke-miterlimit: 10; fill: white; fill-rule: nonzero; opacity: 1;" transform=" matrix(1 0 0 1 0 0) " stroke-linecap="round" />
	<path d="M 45 90 c -0.149 0 -0.299 -0.033 -0.437 -0.101 l -10.251 -4.981 c -0.344 -0.167 -0.563 -0.517 -0.563 -0.899 V 71.795 c 0 -0.345 0.177 -0.665 0.469 -0.848 c 0.293 -0.183 0.659 -0.202 0.968 -0.052 L 45 75.664 l 9.813 -4.769 c 0.311 -0.149 0.677 -0.132 0.968 0.052 c 0.292 0.183 0.47 0.503 0.47 0.848 v 12.224 c 0 0.383 -0.219 0.732 -0.563 0.899 l -10.251 4.981 C 45.299 89.967 45.149 90 45 90 z M 35.749 83.393 L 45 87.888 l 9.251 -4.495 v -10 l -8.814 4.283 c -0.275 0.135 -0.599 0.135 -0.874 0 l -8.814 -4.283 V 83.393 z" style="stroke: none; stroke-width: 1; stroke-dasharray: none; stroke-linecap: butt; stroke-linejoin: miter; stroke-miterlimit: 10; fill: white; fill-rule: nonzero; opacity: 1;" transform=" matrix(1 0 0 1 0 0) " stroke-linecap="round" />
	<path d="M 13.479 62.758 c -0.149 0 -0.299 -0.033 -0.437 -0.101 L 2.791 57.675 c -0.344 -0.167 -0.563 -0.517 -0.563 -0.899 s 0.219 -0.732 0.563 -0.899 l 10.251 -4.981 c 0.275 -0.135 0.599 -0.135 0.874 0 l 10.251 4.981 c 0.344 0.167 0.563 0.517 0.563 0.899 s -0.219 0.732 -0.563 0.899 l -10.251 4.982 C 13.778 62.725 13.628 62.758 13.479 62.758 z M 5.516 56.775 l 7.963 3.87 l 7.963 -3.87 l -7.963 -3.869 L 5.516 56.775 z" style="stroke: none; stroke-width: 1; stroke-dasharray: none; stroke-linecap: butt; stroke-linejoin: miter; stroke-miterlimit: 10; fill: white; fill-rule: nonzero; opacity: 1;" transform=" matrix(1 0 0 1 0 0) " stroke-linecap="round" />
	<path d="M 13.479 74.98 c -0.149 0 -0.299 -0.033 -0.437 -0.101 L 2.791 69.898 c -0.344 -0.167 -0.563 -0.517 -0.563 -0.899 V 56.775 c 0 -0.345 0.177 -0.665 0.47 -0.848 c 0.292 -0.184 0.658 -0.203 0.967 -0.052 l 9.814 4.77 l 9.814 -4.77 c 0.309 -0.151 0.675 -0.132 0.967 0.052 c 0.292 0.183 0.47 0.503 0.47 0.848 v 12.224 c 0 0.383 -0.219 0.732 -0.563 0.899 L 13.916 74.88 C 13.778 74.947 13.628 74.98 13.479 74.98 z M 4.228 68.373 l 9.251 4.495 l 9.251 -4.495 v -10 l -8.814 4.284 c -0.275 0.135 -0.599 0.135 -0.874 0 l -8.814 -4.284 V 68.373 z" style="stroke: none; stroke-width: 1; stroke-dasharray: none; stroke-linecap: butt; stroke-linejoin: miter; stroke-miterlimit: 10; fill: white; fill-rule: nonzero; opacity: 1;" transform=" matrix(1 0 0 1 0 0) " stroke-linecap="round" />
	<path d="M 76.521 62.758 c -0.149 0 -0.299 -0.033 -0.438 -0.101 l -10.251 -4.982 c -0.344 -0.167 -0.563 -0.517 -0.563 -0.899 s 0.219 -0.732 0.563 -0.899 l 10.251 -4.981 c 0.277 -0.135 0.598 -0.135 0.875 0 l 10.25 4.981 c 0.344 0.167 0.563 0.517 0.563 0.899 s -0.219 0.732 -0.563 0.899 l -10.25 4.982 C 76.82 62.725 76.671 62.758 76.521 62.758 z M 68.559 56.775 l 7.963 3.87 l 7.963 -3.87 l -7.963 -3.869 L 68.559 56.775 z" style="stroke: none; stroke-width: 1; stroke-dasharray: none; stroke-linecap: butt; stroke-linejoin: miter; stroke-miterlimit: 10; fill: white; fill-rule: nonzero; opacity: 1;" transform=" matrix(1 0 0 1 0 0) " stroke-linecap="round" />
	<path d="M 76.521 74.98 c -0.149 0 -0.299 -0.033 -0.438 -0.101 l -10.251 -4.981 c -0.344 -0.167 -0.563 -0.517 -0.563 -0.899 V 56.775 c 0 -0.345 0.178 -0.665 0.47 -0.848 c 0.292 -0.184 0.658 -0.203 0.968 -0.052 l 9.813 4.77 l 9.813 -4.77 c 0.311 -0.15 0.677 -0.131 0.968 0.052 c 0.292 0.183 0.47 0.503 0.47 0.848 v 12.224 c 0 0.383 -0.219 0.732 -0.563 0.899 l -10.25 4.981 C 76.82 74.947 76.671 74.98 76.521 74.98 z M 67.271 68.373 l 9.251 4.495 l 9.25 -4.495 v -10 l -8.813 4.284 c -0.277 0.135 -0.598 0.135 -0.875 0 l -8.813 -4.284 V 68.373 z" style="stroke: none; stroke-width: 1; stroke-dasharray: none; stroke-linecap: butt; stroke-linejoin: miter; stroke-miterlimit: 10; fill: white; fill-rule: nonzero; opacity: 1;" transform=" matrix(1 0 0 1 0 0) " stroke-linecap="round" />
	<path d="M 13.479 26.983 c -0.149 0 -0.299 -0.034 -0.437 -0.101 L 2.791 21.9 c -0.344 -0.167 -0.563 -0.517 -0.563 -0.899 s 0.219 -0.732 0.563 -0.899 l 10.251 -4.981 c 0.275 -0.134 0.599 -0.134 0.874 0 l 10.251 4.981 c 0.344 0.167 0.563 0.517 0.563 0.899 s -0.219 0.732 -0.563 0.899 l -10.251 4.982 C 13.778 26.949 13.628 26.983 13.479 26.983 z M 5.516 21.001 l 7.963 3.87 l 7.963 -3.87 l -7.963 -3.87 L 5.516 21.001 z" style="stroke: none; stroke-width: 1; stroke-dasharray: none; stroke-linecap: butt; stroke-linejoin: miter; stroke-miterlimit: 10; fill: white; fill-rule: nonzero; opacity: 1;" transform=" matrix(1 0 0 1 0 0) " stroke-linecap="round" />
	<path d="M 13.479 39.206 c -0.149 0 -0.299 -0.034 -0.437 -0.101 L 2.791 34.124 c -0.344 -0.167 -0.563 -0.517 -0.563 -0.899 V 21.001 c 0 -0.345 0.177 -0.665 0.47 -0.848 c 0.292 -0.183 0.658 -0.202 0.967 -0.052 l 9.814 4.77 l 9.814 -4.77 c 0.309 -0.151 0.675 -0.131 0.967 0.052 c 0.292 0.183 0.47 0.503 0.47 0.848 v 12.224 c 0 0.383 -0.219 0.732 -0.563 0.899 l -10.251 4.981 C 13.778 39.172 13.628 39.206 13.479 39.206 z M 4.228 32.599 l 9.251 4.496 l 9.251 -4.496 v -10 l -8.814 4.284 c -0.275 0.134 -0.599 0.134 -0.874 0 l -8.814 -4.284 V 32.599 z" style="stroke: none; stroke-width: 1; stroke-dasharray: none; stroke-linecap: butt; stroke-linejoin: miter; stroke-miterlimit: 10; fill: white; fill-rule: nonzero; opacity: 1;" transform=" matrix(1 0 0 1 0 0) " stroke-linecap="round" />
	<path d="M 76.521 26.983 c -0.149 0 -0.299 -0.034 -0.438 -0.101 L 65.833 21.9 c -0.344 -0.167 -0.563 -0.517 -0.563 -0.899 s 0.219 -0.732 0.563 -0.899 l 10.251 -4.981 c 0.277 -0.134 0.598 -0.134 0.875 0 l 10.25 4.981 c 0.344 0.167 0.563 0.517 0.563 0.899 s -0.219 0.732 -0.563 0.899 l -10.25 4.982 C 76.82 26.949 76.671 26.983 76.521 26.983 z M 68.559 21.001 l 7.963 3.87 l 7.962 -3.87 l -7.962 -3.87 L 68.559 21.001 z" style="stroke: none; stroke-width: 1; stroke-dasharray: none; stroke-linecap: butt; stroke-linejoin: miter; stroke-miterlimit: 10; fill: white; fill-rule: nonzero; opacity: 1;" transform=" matrix(1 0 0 1 0 0) " stroke-linecap="round" />
	<path d="M 76.521 39.206 c -0.149 0 -0.299 -0.034 -0.438 -0.101 l -10.251 -4.981 c -0.344 -0.167 -0.563 -0.517 -0.563 -0.899 V 21.001 c 0 -0.345 0.178 -0.665 0.47 -0.848 c 0.292 -0.183 0.658 -0.202 0.968 -0.052 l 9.813 4.77 l 9.813 -4.77 c 0.311 -0.149 0.677 -0.13 0.968 0.052 c 0.292 0.183 0.47 0.503 0.47 0.848 v 12.224 c 0 0.383 -0.219 0.732 -0.563 0.899 l -10.25 4.981 C 76.82 39.172 76.671 39.206 76.521 39.206 z M 67.271 32.599 l 9.251 4.496 l 9.25 -4.496 v -10 l -8.813 4.283 c -0.277 0.134 -0.598 0.134 -0.875 0 l -8.813 -4.284 V 32.599 z" style="stroke: none; stroke-width: 1; stroke-dasharray: none; stroke-linecap: butt; stroke-linejoin: miter; stroke-miterlimit: 10; fill: white; fill-rule: nonzero; opacity: 1;" transform=" matrix(1 0 0 1 0 0) " stroke-linecap="round" />
	<path d="M 34.748 74.278 c -0.159 0 -0.321 -0.038 -0.471 -0.118 l -11.019 -5.902 c -0.487 -0.261 -0.67 -0.867 -0.409 -1.354 c 0.26 -0.486 0.867 -0.669 1.354 -0.409 l 11.019 5.902 c 0.487 0.261 0.67 0.867 0.409 1.354 C 35.45 74.087 35.105 74.278 34.748 74.278 z" style="stroke: none; stroke-width: 1; stroke-dasharray: none; stroke-linecap: butt; stroke-linejoin: miter; stroke-miterlimit: 10; fill: white; fill-rule: nonzero; opacity: 1;" transform=" matrix(1 0 0 1 0 0) " stroke-linecap="round" />
	<path d="M 13.479 52.794 c -0.552 0 -1 -0.447 -1 -1 V 38.206 c 0 -0.552 0.448 -1 1 -1 s 1 0.448 1 1 v 13.588 C 14.479 52.347 14.031 52.794 13.479 52.794 z" style="stroke: none; stroke-width: 1; stroke-dasharray: none; stroke-linecap: butt; stroke-linejoin: miter; stroke-miterlimit: 10; fill: white; fill-rule: nonzero; opacity: 1;" transform=" matrix(1 0 0 1 0 0) " stroke-linecap="round" />
	<path d="M 23.731 23.624 c -0.357 0 -0.702 -0.191 -0.882 -0.528 c -0.261 -0.487 -0.078 -1.093 0.409 -1.354 l 11.019 -5.903 c 0.487 -0.26 1.093 -0.077 1.354 0.409 c 0.261 0.487 0.078 1.093 -0.409 1.354 l -11.019 5.903 C 24.052 23.586 23.89 23.624 23.731 23.624 z" style="stroke: none; stroke-width: 1; stroke-dasharray: none; stroke-linecap: butt; stroke-linejoin: miter; stroke-miterlimit: 10; fill: white; fill-rule: nonzero; opacity: 1;" transform=" matrix(1 0 0 1 0 0) " stroke-linecap="round" />
	<path d="M 66.27 23.624 c -0.159 0 -0.321 -0.038 -0.472 -0.119 l -11.02 -5.903 c -0.486 -0.261 -0.67 -0.867 -0.409 -1.354 c 0.261 -0.486 0.868 -0.671 1.354 -0.409 l 11.02 5.903 c 0.486 0.261 0.67 0.867 0.409 1.354 C 66.972 23.433 66.626 23.624 66.27 23.624 z" style="stroke: none; stroke-width: 1; stroke-dasharray: none; stroke-linecap: butt; stroke-linejoin: miter; stroke-miterlimit: 10; fill: white; fill-rule: nonzero; opacity: 1;" transform=" matrix(1 0 0 1 0 0) " stroke-linecap="round" />
	<path d="M 76.521 52.794 c -0.553 0 -1 -0.447 -1 -1 V 38.206 c 0 -0.552 0.447 -1 1 -1 s 1 0.448 1 1 v 13.588 C 77.521 52.347 77.074 52.794 76.521 52.794 z" style="stroke: none; stroke-width: 1; stroke-dasharray: none; stroke-linecap: butt; stroke-linejoin: miter; stroke-miterlimit: 10; fill: white; fill-rule: nonzero; opacity: 1;" transform=" matrix(1 0 0 1 0 0) " stroke-linecap="round" />
	<path d="M 55.252 74.278 c -0.357 0 -0.702 -0.191 -0.883 -0.528 c -0.261 -0.486 -0.077 -1.093 0.41 -1.354 l 11.02 -5.902 c 0.485 -0.26 1.093 -0.076 1.354 0.41 s 0.077 1.093 -0.41 1.354 l -11.02 5.902 C 55.573 74.24 55.411 74.278 55.252 74.278 z" style="stroke: none; stroke-width: 1; stroke-dasharray: none; stroke-linecap: butt; stroke-linejoin: miter; stroke-miterlimit: 10; fill: white; fill-rule: nonzero; opacity: 1;" transform=" matrix(1 0 0 1 0 0) " stroke-linecap="round" />
	<path d="M 45 61.998 c -0.888 0 -1.775 -0.229 -2.567 -0.686 L 32.157 55.38 c -1.583 -0.916 -2.567 -2.619 -2.567 -4.447 V 39.067 c 0 -1.829 0.983 -3.533 2.567 -4.447 l 10.276 -5.933 c 1.584 -0.913 3.551 -0.914 5.135 0 l 10.275 5.933 c 1.584 0.914 2.567 2.618 2.567 4.447 v 11.865 c 0 1.828 -0.983 3.532 -2.567 4.447 l -10.275 5.933 C 46.775 61.77 45.888 61.998 45 61.998 z M 45 30.001 c -0.542 0 -1.084 0.139 -1.567 0.418 l -10.276 5.933 c -0.966 0.558 -1.567 1.598 -1.567 2.714 v 11.865 c 0 1.116 0.601 2.156 1.567 2.715 l 10.275 5.933 c 0.967 0.559 2.168 0.559 3.135 0 l 10.275 -5.933 c 0.967 -0.559 1.567 -1.599 1.567 -2.715 V 39.067 c 0 -1.116 -0.601 -2.157 -1.567 -2.714 L 46.567 30.42 C 46.084 30.141 45.542 30.001 45 30.001 z" style="stroke: none; stroke-width: 1; stroke-dasharray: none; stroke-linecap: butt; stroke-linejoin: miter; stroke-miterlimit: 10; fill: white; fill-rule: nonzero; opacity: 1;" transform=" matrix(1 0 0 1 0 0) " stroke-linecap="round" />
	<path d="M 39.297 49.678 c -0.339 0 -0.664 -0.174 -0.85 -0.473 l -2.715 -4.375 v 3.848 c 0 0.553 -0.448 1 -1 1 s -1 -0.447 -1 -1 v -7.355 c 0 -0.447 0.296 -0.839 0.726 -0.962 c 0.427 -0.123 0.888 0.055 1.124 0.435 l 2.715 4.375 v -3.848 c 0 -0.552 0.448 -1 1 -1 s 1 0.448 1 1 v 7.355 c 0 0.446 -0.296 0.839 -0.726 0.962 C 39.48 49.665 39.388 49.678 39.297 49.678 z" style="stroke: none; stroke-width: 1; stroke-dasharray: none; stroke-linecap: butt; stroke-linejoin: miter; stroke-miterlimit: 10; fill: white; fill-rule: nonzero; opacity: 1;" transform=" matrix(1 0 0 1 0 0) " stroke-linecap="round" />
	<path d="M 43.86 49.678 c -0.552 0 -1 -0.447 -1 -1 v -7.355 c 0 -0.552 0.448 -1 1 -1 h 3.261 c 0.553 0 1 0.448 1 1 s -0.447 1 -1 1 H 44.86 v 6.355 C 44.86 49.23 44.413 49.678 43.86 49.678 z" style="stroke: none; stroke-width: 1; stroke-dasharray: none; stroke-linecap: butt; stroke-linejoin: miter; stroke-miterlimit: 10; fill: white; fill-rule: nonzero; opacity: 1;" transform=" matrix(1 0 0 1 0 0) " stroke-linecap="round" />
	<path d="M 46.453 46 H 43.86 c -0.552 0 -1 -0.448 -1 -1 s 0.448 -1 1 -1 h 2.593 c 0.553 0 1 0.448 1 1 S 47.006 46 46.453 46 z" style="stroke: none; stroke-width: 1; stroke-dasharray: none; stroke-linecap: butt; stroke-linejoin: miter; stroke-miterlimit: 10; fill: white; fill-rule: nonzero; opacity: 1;" transform=" matrix(1 0 0 1 0 0) " stroke-linecap="round" />
	<path d="M 55.269 42.322 h -4.181 c -0.553 0 -1 -0.448 -1 -1 s 0.447 -1 1 -1 h 4.181 c 0.553 0 1 0.448 1 1 S 55.821 42.322 55.269 42.322 z" style="stroke: none; stroke-width: 1; stroke-dasharray: none; stroke-linecap: butt; stroke-linejoin: miter; stroke-miterlimit: 10; fill: white; fill-rule: nonzero; opacity: 1;" transform=" matrix(1 0 0 1 0 0) " stroke-linecap="round" />
	<path d="M 53.179 49.678 c -0.553 0 -1 -0.447 -1 -1 v -7.355 c 0 -0.552 0.447 -1 1 -1 s 1 0.448 1 1 v 7.355 C 54.179 49.23 53.731 49.678 53.179 49.678 z" style="stroke: none; stroke-width: 1; stroke-dasharray: none; stroke-linecap: butt; stroke-linejoin: miter; stroke-miterlimit: 10; fill: white; fill-rule: nonzero; opacity: 1;" transform=" matrix(1 0 0 1 0 0) " stroke-linecap="round" />
</g>
</g>
</svg>