<svg xmlns="http://www.w3.org/2000/svg" xmlns:xlink="http://www.w3.org/1999/xlink" version="1.1" width="256" height="256" viewBox="0 0 256 256" xml:space="preserve">
<desc>Created with Fabric.js 1.7.22</desc>
<defs>
</defs>
<g transform="translate(128 128) scale(0.72 0.72)" style="fill">
	<g style="stroke: none; stroke-width: 0; stroke-dasharray: none; stroke-linecap: butt; stroke-linejoin: miter; stroke-miterlimit: 10; fill: none; fill-rule: nonzero; opacity: 1;" transform="translate(-175.05 -175.05000000000004) scale(3.89 3.89)" >
	<path d="M 45 37.738 c -0.971 0 -1.942 -0.25 -2.809 -0.75 l -11.478 -6.627 c -1.732 -1 -2.809 -2.864 -2.809 -4.865 V 12.243 c 0 -2.001 1.076 -3.865 2.809 -4.865 l 11.478 -6.627 c 1.732 -1 3.885 -1 5.617 0 l 11.478 6.627 c 1.732 1 2.809 2.864 2.809 4.865 v 13.253 c 0 2.001 -1.076 3.865 -2.809 4.865 l -11.478 6.627 C 46.942 37.488 45.971 37.738 45 37.738 z M 45 2.001 c -0.626 0 -1.251 0.161 -1.809 0.483 L 31.714 9.11 c -1.116 0.644 -1.809 1.844 -1.809 3.133 v 13.253 c 0 1.289 0.693 2.489 1.809 3.133 l 11.478 6.627 c 1.115 0.645 2.502 0.645 3.617 0 l 11.478 -6.627 c 1.115 -0.644 1.809 -1.844 1.809 -3.133 V 12.243 c 0 -1.289 -0.693 -2.489 -1.809 -3.133 L 46.809 2.484 C 46.251 2.161 45.626 2.001 45 2.001 z" style="stroke: none; stroke-width: 1; stroke-dasharray: none; stroke-linecap: butt; stroke-linejoin: miter; stroke-miterlimit: 10; fill: white; fill-rule: nonzero; opacity: 1;" transform=" matrix(1 0 0 1 0 0) " stroke-linecap="round" />
	<path d="M 38.63 23.977 c -0.339 0 -0.664 -0.173 -0.85 -0.473 l -3.25 -5.235 v 4.708 c 0 0.552 -0.448 1 -1 1 c -0.552 0 -1 -0.448 -1 -1 v -8.216 c 0 -0.447 0.296 -0.839 0.726 -0.962 c 0.431 -0.122 0.889 0.055 1.124 0.435 l 3.25 5.235 v -4.708 c 0 -0.552 0.448 -1 1 -1 s 1 0.448 1 1 v 8.216 c 0 0.447 -0.296 0.839 -0.726 0.962 C 38.813 23.965 38.722 23.977 38.63 23.977 z" style="stroke: none; stroke-width: 1; stroke-dasharray: none; stroke-linecap: butt; stroke-linejoin: miter; stroke-miterlimit: 10; fill: white; fill-rule: nonzero; opacity: 1;" transform=" matrix(1 0 0 1 0 0) " stroke-linecap="round" />
	<path d="M 43.727 23.977 c -0.552 0 -1 -0.448 -1 -1 v -8.216 c 0 -0.552 0.448 -1 1 -1 h 3.642 c 0.553 0 1 0.448 1 1 s -0.447 1 -1 1 h -2.642 v 7.216 C 44.727 23.53 44.279 23.977 43.727 23.977 z" style="stroke: none; stroke-width: 1; stroke-dasharray: none; stroke-linecap: butt; stroke-linejoin: miter; stroke-miterlimit: 10; fill: white; fill-rule: nonzero; opacity: 1;" transform=" matrix(1 0 0 1 0 0) " stroke-linecap="round" />
	<path d="M 46.623 19.87 h -2.896 c -0.552 0 -1 -0.448 -1 -1 c 0 -0.552 0.448 -1 1 -1 h 2.896 c 0.553 0 1 0.448 1 1 C 47.623 19.422 47.176 19.87 46.623 19.87 z" style="stroke: none; stroke-width: 1; stroke-dasharray: none; stroke-linecap: butt; stroke-linejoin: miter; stroke-miterlimit: 10; fill: white; fill-rule: nonzero; opacity: 1;" transform=" matrix(1 0 0 1 0 0) " stroke-linecap="round" />
	<path d="M 56.469 15.762 H 51.8 c -0.553 0 -1 -0.448 -1 -1 s 0.447 -1 1 -1 h 4.669 c 0.553 0 1 0.448 1 1 S 57.022 15.762 56.469 15.762 z" style="stroke: none; stroke-width: 1; stroke-dasharray: none; stroke-linecap: butt; stroke-linejoin: miter; stroke-miterlimit: 10; fill: white; fill-rule: nonzero; opacity: 1;" transform=" matrix(1 0 0 1 0 0) " stroke-linecap="round" />
	<path d="M 54.135 23.977 c -0.553 0 -1 -0.448 -1 -1 v -8.216 c 0 -0.552 0.447 -1 1 -1 s 1 0.448 1 1 v 8.216 C 55.135 23.53 54.688 23.977 54.135 23.977 z" style="stroke: none; stroke-width: 1; stroke-dasharray: none; stroke-linecap: butt; stroke-linejoin: miter; stroke-miterlimit: 10; fill: white; fill-rule: nonzero; opacity: 1;" transform=" matrix(1 0 0 1 0 0) " stroke-linecap="round" />
	<path d="M 74.272 90.001 H 15.728 c -0.552 0 -1 -0.447 -1 -1 V 56.534 c 0 -0.553 0.448 -1 1 -1 c 0.552 0 1 0.447 1 1 v 31.468 h 56.545 V 56.534 c 0 -0.553 0.447 -1 1 -1 s 1 0.447 1 1 v 32.468 C 75.272 89.554 74.825 90.001 74.272 90.001 z" style="stroke: none; stroke-width: 1; stroke-dasharray: none; stroke-linecap: butt; stroke-linejoin: miter; stroke-miterlimit: 10; fill: white; fill-rule: nonzero; opacity: 1;" transform=" matrix(1 0 0 1 0 0) " stroke-linecap="round" />
	<path d="M 45 57.836 c -4.309 0 -7.815 -3.506 -7.815 -7.815 l 0.947 -9.97 c 0.049 -0.513 0.48 -0.905 0.996 -0.905 h 11.744 c 0.516 0 0.946 0.392 0.995 0.905 l 0.942 9.876 c 0.003 0.031 0.005 0.063 0.005 0.095 C 52.815 54.33 49.309 57.836 45 57.836 z M 40.037 41.146 l -0.856 8.97 c 0.004 3.111 2.613 5.72 5.819 5.72 c 3.191 0 5.79 -2.584 5.815 -5.769 l -0.852 -8.921 H 40.037 z" style="stroke: none; stroke-width: 1; stroke-dasharray: none; stroke-linecap: butt; stroke-linejoin: miter; stroke-miterlimit: 10; fill: white; fill-rule: nonzero; opacity: 1;" transform=" matrix(1 0 0 1 0 0) " stroke-linecap="round" />
	<path d="M 31.371 57.836 c -4.309 0 -7.815 -3.506 -7.815 -7.815 c 0 -0.143 0.031 -0.284 0.09 -0.414 l 4.49 -9.875 c 0.162 -0.357 0.518 -0.586 0.91 -0.586 h 10.081 c 0.282 0 0.55 0.119 0.74 0.327 c 0.19 0.208 0.283 0.487 0.256 0.768 l -0.943 9.875 C 39.185 54.33 35.68 57.836 31.371 57.836 z M 25.561 50.231 c 0.11 3.109 2.674 5.606 5.811 5.606 c 3.206 0 5.814 -2.608 5.814 -5.815 l 0.843 -8.875 h -8.338 L 25.561 50.231 z" style="stroke: none; stroke-width: 1; stroke-dasharray: none; stroke-linecap: butt; stroke-linejoin: miter; stroke-miterlimit: 10; fill: white; fill-rule: nonzero; opacity: 1;" transform=" matrix(1 0 0 1 0 0) " stroke-linecap="round" />
	<path d="M 17.742 57.836 c -4.309 0 -7.814 -3.506 -7.814 -7.815 c 0 -0.25 0.094 -0.491 0.263 -0.676 l 9.059 -9.875 c 0.189 -0.207 0.457 -0.324 0.737 -0.324 h 9.06 c 0.34 0 0.657 0.173 0.841 0.459 c 0.184 0.286 0.21 0.646 0.069 0.956 l -4.403 9.685 C 25.435 54.451 21.976 57.836 17.742 57.836 z M 11.94 50.398 c 0.194 3.031 2.722 5.439 5.802 5.439 c 3.206 0 5.815 -2.608 5.815 -5.815 c 0 -0.143 0.031 -0.284 0.09 -0.414 l 3.847 -8.461 h -7.067 L 11.94 50.398 z" style="stroke: none; stroke-width: 1; stroke-dasharray: none; stroke-linecap: butt; stroke-linejoin: miter; stroke-miterlimit: 10; fill: white; fill-rule: nonzero; opacity: 1;" transform=" matrix(1 0 0 1 0 0) " stroke-linecap="round" />
	<path d="M 58.629 57.836 c -4.309 0 -7.815 -3.506 -7.815 -7.815 l -0.938 -9.78 c -0.027 -0.281 0.065 -0.56 0.255 -0.768 c 0.189 -0.209 0.459 -0.327 0.74 -0.327 h 10.08 c 0.392 0 0.748 0.229 0.91 0.586 l 4.491 9.875 c 0.06 0.13 0.09 0.271 0.09 0.414 C 66.444 54.33 62.938 57.836 58.629 57.836 z M 51.972 41.146 l 0.838 8.781 c 0.005 3.301 2.613 5.909 5.819 5.909 c 3.137 0 5.7 -2.496 5.811 -5.606 l -4.131 -9.084 H 51.972 z" style="stroke: none; stroke-width: 1; stroke-dasharray: none; stroke-linecap: butt; stroke-linejoin: miter; stroke-miterlimit: 10; fill: white; fill-rule: nonzero; opacity: 1;" transform=" matrix(1 0 0 1 0 0) " stroke-linecap="round" />
	<path d="M 72.258 57.836 c -4.234 0 -7.692 -3.385 -7.811 -7.591 l -4.404 -9.685 c -0.141 -0.31 -0.114 -0.669 0.069 -0.956 c 0.184 -0.286 0.501 -0.459 0.841 -0.459 h 9.06 c 0.28 0 0.548 0.118 0.737 0.324 l 9.06 9.875 c 0.169 0.185 0.263 0.426 0.263 0.676 C 80.072 54.33 76.566 57.836 72.258 57.836 z M 62.506 41.146 l 3.848 8.461 c 0.06 0.13 0.09 0.271 0.09 0.414 c 0 3.206 2.608 5.815 5.814 5.815 c 3.08 0 5.608 -2.407 5.803 -5.439 l -8.488 -9.251 H 62.506 z" style="stroke: none; stroke-width: 1; stroke-dasharray: none; stroke-linecap: butt; stroke-linejoin: miter; stroke-miterlimit: 10; fill: white; fill-rule: nonzero; opacity: 1;" transform=" matrix(1 0 0 1 0 0) " stroke-linecap="round" />
	<path d="M 44.314 82.692 H 23.009 c -0.552 0 -1 -0.447 -1 -1 V 65.421 c 0 -0.553 0.448 -1 1 -1 h 21.305 c 0.552 0 1 0.447 1 1 v 16.271 C 45.314 82.245 44.867 82.692 44.314 82.692 z M 24.009 80.692 h 19.305 V 66.421 H 24.009 V 80.692 z" style="stroke: none; stroke-width: 1; stroke-dasharray: none; stroke-linecap: butt; stroke-linejoin: miter; stroke-miterlimit: 10; fill: white; fill-rule: nonzero; opacity: 1;" transform=" matrix(1 0 0 1 0 0) " stroke-linecap="round" />
	<path d="M 66.991 90.001 H 51.254 c -0.553 0 -1 -0.447 -1 -1 v -23.58 c 0 -0.553 0.447 -1 1 -1 h 15.737 c 0.553 0 1 0.447 1 1 v 23.58 C 67.991 89.554 67.544 90.001 66.991 90.001 z M 52.254 88.001 h 13.737 v -21.58 H 52.254 V 88.001 z" style="stroke: none; stroke-width: 1; stroke-dasharray: none; stroke-linecap: butt; stroke-linejoin: miter; stroke-miterlimit: 10; fill: white; fill-rule: nonzero; opacity: 1;" transform=" matrix(1 0 0 1 0 0) " stroke-linecap="round" />
	<path d="M 53.295 78.211 h -2.041 c -0.553 0 -1 -0.447 -1 -1 c 0 -0.553 0.447 -1 1 -1 h 2.041 c 0.553 0 1 0.447 1 1 C 54.295 77.764 53.848 78.211 53.295 78.211 z" style="stroke: none; stroke-width: 1; stroke-dasharray: none; stroke-linecap: butt; stroke-linejoin: miter; stroke-miterlimit: 10; fill: white; fill-rule: nonzero; opacity: 1;" transform=" matrix(1 0 0 1 0 0) " stroke-linecap="round" />
	<path d="M 27.458 73.372 c -0.256 0 -0.512 -0.098 -0.707 -0.293 c -0.391 -0.391 -0.391 -1.023 0 -1.414 l 2.502 -2.502 c 0.391 -0.391 1.023 -0.391 1.414 0 c 0.391 0.391 0.391 1.023 0 1.414 l -2.502 2.502 C 27.97 73.274 27.714 73.372 27.458 73.372 z" style="stroke: none; stroke-width: 1; stroke-dasharray: none; stroke-linecap: butt; stroke-linejoin: miter; stroke-miterlimit: 10; fill: white; fill-rule: nonzero; opacity: 1;" transform=" matrix(1 0 0 1 0 0) " stroke-linecap="round" />
	<path d="M 28.401 78.614 c -0.256 0 -0.512 -0.098 -0.707 -0.293 c -0.391 -0.391 -0.391 -1.023 0 -1.414 l 6.801 -6.801 c 0.391 -0.391 1.023 -0.391 1.414 0 c 0.391 0.391 0.391 1.023 0 1.414 l -6.801 6.801 C 28.913 78.517 28.657 78.614 28.401 78.614 z" style="stroke: none; stroke-width: 1; stroke-dasharray: none; stroke-linecap: butt; stroke-linejoin: miter; stroke-miterlimit: 10; fill: white; fill-rule: nonzero; opacity: 1;" transform=" matrix(1 0 0 1 0 0) " stroke-linecap="round" />
	<path d="M 70.012 41.146 H 19.987 c -0.552 0 -1 -0.448 -1 -1 V 24.004 c 0 -0.552 0.448 -1 1 -1 h 8.918 c 0.552 0 1 0.448 1 1 c 0 0.552 -0.448 1 -1 1 h -7.918 v 14.142 h 48.025 V 25.004 h -7.917 c -0.553 0 -1 -0.448 -1 -1 c 0 -0.552 0.447 -1 1 -1 h 8.917 c 0.553 0 1 0.448 1 1 v 16.142 C 71.012 40.699 70.565 41.146 70.012 41.146 z" style="stroke: none; stroke-width: 1; stroke-dasharray: none; stroke-linecap: butt; stroke-linejoin: miter; stroke-miterlimit: 10; fill: white; fill-rule: nonzero; opacity: 1;" transform=" matrix(1 0 0 1 0 0) " stroke-linecap="round" />
	<path d="M 79.072 51.022 H 10.928 c -0.552 0 -1 -0.447 -1 -1 s 0.448 -1 1 -1 h 68.144 c 0.553 0 1 0.447 1 1 S 79.625 51.022 79.072 51.022 z" style="stroke: none; stroke-width: 1; stroke-dasharray: none; stroke-linecap: butt; stroke-linejoin: miter; stroke-miterlimit: 10; fill: white; fill-rule: nonzero; opacity: 1;" transform=" matrix(1 0 0 1 0 0) " stroke-linecap="round" />
</g>
</g>
</svg>