<svg width="39" height="39" fill="none" xmlns="http://www.w3.org/2000/svg">
    <path fill-rule="evenodd" clip-rule="evenodd"
          d="M24.526 10.655C30.959 9.448 36.789 12.464 39 18.294c-2.613-1.005-5.629-1.206-8.644-.402.603.804 1.206 1.809 1.608 2.814.2.402.2.804 0 1.005L21.912 31.763c-.402.402-.804.402-1.206.2-1.005-.401-2.01-1.004-3.015-1.607-.804 3.015-.603 6.03.402 8.644-5.83-2.211-8.645-8.242-7.64-14.474C4.424 18.294.202 9.649 0 1.006 0 .401.402 0 1.005 0c8.644.201 17.289 4.423 23.52 10.655zm-13.268 6.232c1.608 1.608 4.02 1.608 5.629 0 1.608-1.609 1.608-4.021 0-5.63-1.609-1.608-4.021-1.608-5.63 0-1.608 1.609-1.608 4.021 0 5.63z"
          fill="#1B2130"></path>
</svg>