<?xml version="1.0" encoding="UTF-8" standalone="no"?><!DOCTYPE svg PUBLIC "-//W3C//DTD SVG 1.1//EN" "http://www.w3.org/Graphics/SVG/1.1/DTD/svg11.dtd"><svg width="100%" height="100%" viewBox="0 0 2418 488" version="1.1" xmlns="http://www.w3.org/2000/svg" xmlns:xlink="http://www.w3.org/1999/xlink" xml:space="preserve" xmlns:serif="http://www.serif.com/" style="fill-rule:evenodd;clip-rule:evenodd;stroke-linejoin:round;stroke-miterlimit:2;"><g><g><path d="M315.656,171.174l-39.187,116.719l-37.844,-116.719l-76.625,0l-39.219,115.313l-37.375,-115.313l-85.406,0l75.813,218.282l87.781,-0l34.437,-101.032l33,101.032l87.813,-0l75.812,-218.282l-79,0Z" style="fill:#1b2130;fill-rule:nonzero;"/><path d="M578.031,179.956c-18.219,-8.532 -38.094,-12.782 -59.656,-12.782c-23.406,0 -44.5,4.782 -63.25,14.375c-18.75,9.563 -33.531,22.875 -44.313,39.907c-10.781,17.031 -16.156,36.562 -16.156,58.656c0,21.531 5.438,40.906 16.375,58.062c10.906,17.157 26.25,30.657 46.094,40.5c19.812,9.844 43.031,14.782 69.625,14.782c21.813,-0 40.5,-3 56.063,-9c15.562,-6 28.656,-14.688 39.312,-26.157l-47.094,-47.468c-7.187,5.312 -14.031,9.312 -20.562,11.968c-6.531,2.657 -14.844,4 -24.938,4c-9.843,0 -18.218,-1.656 -25.125,-5c-6.937,-3.312 -12.25,-8.312 -15.969,-14.968c-1,-1.75 -1.812,-3.625 -2.562,-5.563l151.406,0c0.25,-3.187 0.531,-6.719 0.813,-10.594c0.25,-3.843 0.406,-7.375 0.406,-10.562c-0,-24.75 -5.531,-45.5 -16.563,-62.25c-11.062,-16.75 -25.687,-29.406 -43.906,-37.906Zm-78.218,53.687c5.437,-3.344 11.906,-5 19.343,-5c7.438,0 13.813,1.656 19.157,5c5.312,3.313 9.5,7.969 12.562,13.969c1.562,3.062 2.719,6.469 3.469,10.187l-70.469,0c0.719,-3.718 1.844,-7.125 3.312,-10.187c2.969,-6 7.157,-10.656 12.625,-13.969Z" style="fill:#1b2130;fill-rule:nonzero;"/><path d="M903.437,219.643c-9.562,-16.906 -22.343,-29.844 -38.312,-38.906c-15.969,-9.031 -33.531,-13.563 -52.688,-13.563c-18.906,0 -34.531,4.063 -46.875,12.188c-3.062,2 -5.906,4.281 -8.562,6.812l-0,-92.812l-90.188,-0l0,296.094l85.813,-0l-0,-18c3.437,3.875 7.281,7.218 11.562,10.031c12.25,7.969 28.344,11.969 48.282,11.969c19.156,-0 36.718,-4.594 52.687,-13.782c15.969,-9.187 28.719,-22.218 38.313,-39.093c9.593,-16.907 14.375,-37.032 14.375,-60.438c-0.032,-23.437 -4.813,-43.594 -14.407,-60.5Zm-81.812,84.219c-3.188,6.531 -7.438,11.375 -12.781,14.562c-5.313,3.188 -11.313,4.782 -17.969,4.782c-6.656,-0 -12.625,-1.594 -17.938,-4.782c-5.312,-3.187 -9.593,-8.031 -12.781,-14.562c-3.187,-6.5 -4.781,-14.438 -4.781,-23.75c0,-9.594 1.594,-17.5 4.781,-23.75c3.188,-6.25 7.438,-10.969 12.781,-14.156c5.313,-3.188 11.313,-4.782 17.938,-4.782c6.656,0 12.625,1.594 17.969,4.782c5.312,3.187 9.593,7.906 12.781,14.156c3.187,6.25 4.781,14.156 4.781,23.75c0.031,9.312 -1.594,17.25 -4.781,23.75Z" style="fill:#1b2130;fill-rule:nonzero;"/><path d="M1126.12,239.424c-10.375,-8.875 -23.406,-15.218 -39.125,-19.093l51.5,-52.344l0,-57.875l-208.312,-0l-0,71.031l99.875,0l-41.219,41.906l-0,57.844l37.125,0c11.968,0 20.468,1.656 25.531,5c5.063,3.344 7.594,8.063 7.594,14.156c-0,7.188 -3.375,12.563 -10.188,16.157c-6.781,3.593 -15.5,5.375 -26.156,5.375c-11.719,-0 -24.156,-1.657 -37.313,-5c-13.187,-3.313 -25.75,-8.438 -37.718,-15.344l-31.938,69.437c14.906,8.25 32.188,14.5 51.875,18.75c19.688,4.25 39.094,6.375 58.25,6.375c29.781,0 54.063,-4.656 72.844,-13.968c18.75,-9.313 32.594,-21.282 41.5,-35.907c8.906,-14.625 13.375,-29.937 13.375,-45.875c0.031,-24.718 -9.156,-44.937 -27.5,-60.625Z" style="fill:#1b2130;fill-rule:nonzero;"/></g><g><path d="M2009.09,219.362c-6.782,-3.813 -14.469,-5.75 -23,-5.75c-8.313,-0 -15.875,1.906 -22.657,5.75c-6.781,3.844 -12.218,9.375 -16.25,16.594c-4.062,7.218 -6.093,15.968 -6.093,26.281c-0,10.062 2.031,18.844 6.093,26.281c4.032,7.438 9.469,13.094 16.25,16.906c6.782,3.813 14.344,5.75 22.657,5.75c8.531,0 16.187,-1.906 23,-5.75c6.781,-3.843 12.187,-9.468 16.25,-16.906c4.062,-7.437 6.093,-16.219 6.093,-26.281c0,-10.281 -2.031,-19.063 -6.093,-26.281c-4.063,-7.25 -9.469,-12.782 -16.25,-16.594Z" style="fill:#1b2130;fill-rule:nonzero;"/><path d="M1742.88,282.581c-4.469,3.937 -6.719,8.875 -6.719,14.781c0,6.562 2.563,11.781 7.719,15.594c5.125,3.843 12.094,5.75 20.844,5.75c8.75,-0 16.593,-1.969 23.5,-5.907c6.906,-3.937 11.75,-9.937 14.625,-18.062l-0,-18.063l-35.157,0c-12.062,0 -20.312,1.969 -24.812,5.907Z" style="fill:#1b2130;fill-rule:nonzero;"/><path d="M1599.84,215.737c-6.563,-3.844 -14.25,-5.75 -23,-5.75c-8.75,-0 -16.469,1.906 -23.157,5.75c-6.687,3.812 -11.875,9.187 -15.593,16.094c-2.375,4.406 -3.719,9.5 -4.563,14.937l86.219,0c-0.75,-5.5 -2.031,-10.656 -4.469,-15.094c-3.719,-6.781 -8.843,-12.093 -15.437,-15.937Z" style="fill:#1b2130;fill-rule:nonzero;"/><path d="M2415.44,215.581c-12.218,-109.532 -99.593,-198.907 -208.875,-213.375c-47.343,-6.282 -92.437,1.125 -131.968,18.75c-65.469,29.187 -135.094,47.875 -206.782,47.875l-99.937,-0c-71.656,-0 -141.281,-18.688 -206.75,-47.875c-39.531,-17.625 -84.594,-25.032 -131.938,-18.75c-109.281,14.468 -196.656,103.812 -208.906,213.343c-16.437,147.094 98.25,271.657 242.031,271.657c36.344,-0 70.782,-8 101.75,-22.282c67.313,-31.093 140.782,-46.531 214.938,-46.531l77.656,0c74.156,0 147.625,15.438 214.938,46.531c30.937,14.313 65.406,22.282 101.75,22.282c143.812,-0 258.5,-124.532 242.093,-271.625Zm-948.937,3.281c-1.969,-0.438 -3.906,-0.781 -5.75,-1c-1.875,-0.219 -3.688,-0.313 -5.438,-0.313c-14.468,0 -25.937,4.063 -34.5,12.157c-8.531,8.093 -12.812,20.593 -12.812,37.437l-0,83.438l-51.25,-0l-0,-176.719l48.937,-0l0,24.406c4.907,-6.937 10.688,-13.062 18.407,-17.344c11.593,-6.468 25.718,-9.687 42.375,-9.687l-0,47.625l0.031,-0Zm201.656,50.75c-0.219,2.531 -0.437,4.875 -0.656,7.062l-133.5,0c1.094,4.75 2.687,9.188 5.094,13.157c4.375,7.218 10.406,12.75 18.062,16.593c7.656,3.844 16.844,5.75 27.594,5.75c9.188,0 17.344,-1.437 24.469,-4.281c7.093,-2.844 13.625,-7.125 19.531,-12.812l27.25,29.562c-8.094,9.219 -18.281,16.25 -30.531,21.188c-12.281,4.906 -26.375,7.406 -42.375,7.406c-20.156,-0 -37.781,-3.938 -52.875,-11.813c-15.125,-7.906 -26.844,-18.687 -35.156,-32.375c-8.313,-13.656 -12.469,-29.281 -12.469,-46.781c-0,-17.531 4,-33.187 11.969,-46.969c8,-13.812 19.156,-24.562 33.5,-32.343c14.343,-7.782 30.5,-11.657 48.437,-11.657c17.313,0 32.906,3.719 46.813,11.157c13.906,7.437 24.906,17.968 33,31.531c8.093,13.594 12.156,29.875 12.156,48.937c0.031,1.907 -0.094,4.157 -0.313,6.688Zm185.906,80.969l-47.968,-0l-0,-23.344c-3.907,6.75 -8.781,12.687 -15.75,16.937c-9.844,6.032 -22.563,9.063 -38.094,9.063c-13.563,-0 -25.281,-2.344 -35.156,-7.063c-9.844,-4.687 -17.469,-11.093 -22.813,-19.218c-5.375,-8.094 -8.031,-17.188 -8.031,-27.25c0,-10.282 2.563,-19.438 7.719,-27.438c5.156,-8 13.312,-14.156 24.469,-18.562c11.156,-4.375 25.843,-6.563 44,-6.563l40.406,0l-0,-0.344c-0,-10.937 -3.344,-19.468 -10.032,-25.625c-6.687,-6.125 -16.906,-9.218 -30.718,-9.218c-9.407,-0 -18.657,1.468 -27.75,4.437c-9.094,2.969 -16.907,6.938 -23.5,12l-18.063,-35.781c9.625,-7 21.25,-12.313 34.813,-15.938c13.562,-3.625 27.375,-5.406 41.375,-5.406c26.937,0 47.843,6.344 62.719,19.031c14.875,12.688 22.343,32.532 22.343,59.469l0,100.813l0.031,-0Zm227.594,-0l-48.937,-0l-0,-20.438c-4.407,5.406 -9.438,9.969 -15.282,13.375c-11.062,6.469 -24.374,9.688 -39.906,9.688c-16.656,-0 -31.625,-3.782 -45,-11.344c-13.375,-7.563 -23.875,-18.094 -31.531,-31.688c-7.656,-13.562 -11.5,-29.562 -11.5,-47.937c0,-18.406 3.813,-34.375 11.5,-47.938c7.656,-13.593 18.156,-24.156 31.531,-31.687c13.344,-7.563 28.344,-11.344 45,-11.344c14.906,0 27.906,3.281 39.094,9.844c5.187,3.062 9.687,7 13.781,11.5l0,-85.719l51.25,0l0,243.688Zm142.875,10.843c-5.687,14.438 -12.219,25.657 -19.531,33.657c-7.344,7.968 -15.438,13.625 -24.313,16.906c-8.875,3.281 -18.656,4.937 -29.406,4.937c-8.969,0 -17.968,-1.437 -26.937,-4.281c-8.969,-2.844 -16.438,-6.781 -22.344,-11.812l18.719,-36.782c3.937,3.719 8.468,6.563 13.625,8.532c5.125,1.968 10.343,2.968 15.593,2.968c7.001,0 12.626,-1.687 16.907,-5.093c4.25,-3.407 8.156,-9.032 11.656,-16.907l0.625,-1.5l-76.188,-178.156l52.563,0l49.719,119.906l50.125,-119.906l48.937,0l-79.75,187.531Z" style="fill:#1b2130;fill-rule:nonzero;"/></g></g></svg>